<svg width="0" height="0">
        <symbol id="anonymous" viewBox="0 0 80 81">
            <g fill="none" fill-rule="evenodd"><path d="M23 40.8a17.4 17.4 0 0 1 34.7 0c0 9.7-7.7 17.5-17.3 17.5-9.6 0-17.3-8-17.3-17.5" fill="#1A1918"/><path d="M34.4 40.8a6 6 0 0 1 6-6 6 6 0 0 1 6 6 6 6 0 0 1-6 6 6 6 0 0 1-6-6" fill="#FFF"/><path d="M40.4 47.4c-3.6 0-6.6-3-6.6-6.7 0-3.8 3-6.7 6.6-6.7 3.7 0 6.6 3 6.6 6.7s-3 6.7-6.6 6.7zm0-12a5.4 5.4 0 0 0 0 10.6c3 0 5.3-2.3 5.3-5.2 0-3-2.4-5.5-5.3-5.5z" fill="#1A1918"/><path d="M40.4 60C20.6 60 4.8 42.8 4 42l-1-1.2 1-1.4c.8-.7 16.5-18 36.4-18 20 0 35.6 17.4 36.3 18l1.2 1.4-1.3 1.3c-.7.8-16.5 18-36.3 18zM8.2 40.8c4 4 17 15.4 32.2 15.4 15 0 28.2-11.5 32.2-15.4-4-4-17-15.6-32.2-15.6-15 0-28 11.5-32.2 15.6z" fill="#1A1918"/><path d="M16.8 69.3c-.6 0-1.2-.2-1.6-.6L12.4 66c-.8-1-.8-2.4 0-3.3l50-50a2.2 2.2 0 0 1 3.3 0l2.7 2.7a2.2 2.2 0 0 1 0 3l-50 50.3c-.5.4-1 .6-1.6.6" fill="#1A1918"/><path d="M64 13.2c.4 0 .6 0 .8.3l2.8 2.7c.3.4.3 1 0 1.5l-50 50a1 1 0 0 1-1.5 0L13.4 65a1 1 0 0 1 0-1.4l50-50c.3-.3.6-.4.8-.4m0-2.5c-.8 0-1.7.4-2.3 1L11.7 62a3.5 3.5 0 0 0 0 4.8l2.6 2.7a3.5 3.5 0 0 0 5 0l50-50a3.5 3.5 0 0 0 0-5l-2.7-2.8c-.7-.6-1.5-1-2.5-1" fill="#FFF"/></g>
        </symbol>
        <symbol id="anstellung" viewBox="0 0 80 80">
            <g fill="#1A1918" fill-rule="evenodd"><path d="M43 3h-.2c-2 0-3.5 1.7-3.5 3.8 0 2 .8 3.6 4 3.6a28.3 28.3 0 0 1 27.4 27.8c0 15.4-12.7 28-28.3 28a28 28 0 0 1-28.2-25.5h6.5L10.7 24 .4 40.8h6.2c1 18.3 16.7 32.8 35.6 32.8A35.5 35.5 0 0 0 78 38.3C78 19.3 62.3 3.5 43 3"/><path d="M47.3 20.2c0-1.7-1.5-3.2-3.3-3.2h-.7a3.2 3.2 0 0 0-3.2 3.2v18.5l-9.2 9a3.4 3.4 0 0 0 0 5 3.6 3.6 0 0 0 5 0l10.3-10 .3-.4a3 3 0 0 0 1-2.2V20.3"/></g>
        </symbol>
        <symbol id="apple" viewBox="0 0 80 80">
            <path d="M50.6 5.8c.6-1-1-2.2-2.4-2-.4 0-.8 0-1 .5-3.8 7-5.7 13.3-6.5 19l3.2-1.6c.8-5 2.3-9.4 6.6-16zM40 26a16 16 0 0 0-11.4-4.7A22.3 22.3 0 0 0 7.6 44c0 18.7 14 32 32.3 32C58.3 76 72.3 63 72.3 44.5 72.4 26 54 16.2 40 26zm11.6 43.2c-5.3 0 1-8.7 1.5-16.2.7-7 3.3-14.7 6.5-16.7a4 4 0 0 1 2-.6c2.8-.2 6.4 2.6 6.4 9.5.2 12.8-11 24-16.4 24zM24.8 15c9.8 0 14.7 5 14.7 3.5C39.5 17 38 4.7 28.5 2c-2.2-.6-4-1-6-1C15 1 10.4 5.7 10 9c-.6 4.2 5 6 15 6zm-5.2-7c6-.3 13.2 2 16.7 7.5-10.8-6-17.4-1-23.3-5.5 1.6-1.2 4-2 6.6-2z" fill="#010101" fill-rule="evenodd"/>
        </symbol>
        <symbol id="arrow-curved-left" viewBox="0 0 80 81">
            <path d="M2.8 40l35-24v14.5s40 3.2 40 33.6c0 0-5-12.4-24.5-14.7-3-.4-8-.8-15.6-.8V64l-35-24z" fill="#000" fill-rule="evenodd"/>
        </symbol>
        <symbol id="arrow-curved-right" viewBox="0 0 80 81">
            <path d="M78.2 39.8l-35-24v14.4s-40 3.2-40 33.6c0 0 5-12.5 24.5-15 3-.3 8-.6 15.6-.6v15.6l35-24z" fill="#000" fill-rule="evenodd"/>
        </symbol>
        <symbol id="arrow-curved-up" viewBox="0 0 80 81">
            <path d="M38 2.2L15 38.8l14.6-.6s4.7 41 35.4 40c0 0-12.8-4.7-16-24.6-.4-3.2-1-8.2-1.3-16l15.8-.6L38 2.2z" fill="#000" fill-rule="evenodd"/>
        </symbol>
        <symbol id="arrow-right-bg" viewBox="0 0 80 80">
            <path d="M79 39a38.5 38.5 0 1 0-77 0 38.5 38.5 0 0 0 77 0zm-25.6 5.4H13.2V34h40.2V23.4L69 39.2 53.5 55V44.3z" fill="#000" fill-rule="evenodd"/>
        </symbol>
        <symbol id="arrow-right" viewBox="0 0 80 81">
            <path d="M77 37L43 7.5c-2.3-2.2-4.4-1.2-4.4 2.2v21.6H7a6 6 0 0 0-6 6v7a6 6 0 0 0 6 6.2h31.6v21.7c0 3.3 2 4.3 4.5 2L77 45a5 5 0 0 0 0-7.8z" fill="#000" fill-rule="evenodd"/>
        </symbol>
        <symbol id="arrowhead-down" viewBox="0 0 81 81">
            <path d="M2.7 22.5l38 36.4 38-36.5h-76z" fill="#000" fill-rule="evenodd"/>
        </symbol>
        <symbol id="arrowhead-left" viewBox="0 0 80 81">
            <path d="M58.2 1.5L21 40l37.2 38.3V1.5z" fill="#000" fill-rule="evenodd"/>
        </symbol>
        <symbol id="arrowhead-right" viewBox="0 0 80 81">
            <path d="M22 78.5L59.2 40 22 1.8v76.8z" fill="#000" fill-rule="evenodd"/>
        </symbol>
        <symbol id="arrowhead-up" viewBox="0 0 80 80">
            <path d="M77.8 58.2L39.8 22 2 58.2h75.8z" fill="#000" fill-rule="evenodd"/>
        </symbol>
        <symbol id="attachment" viewBox="0 0 80 81">
            <g fill="#000" fill-rule="evenodd"><path d="M73.5 41.2L59 26.8l-.2-.2a16 16 0 0 0-6.5-3.8 20.4 20.4 0 0 1 5.6 16l9 9a6.6 6.6 0 0 1 2 4.6 7 7 0 0 1-2 4.8l-6 6C60 64 58 65 56.4 65c-2 0-3.6-.7-4.8-2L37 48.8c-.6-.5-1-1.2-1.3-2a7 7 0 0 1 .5-6.6l.8-1 2.2-2c0-.4 0-.6-.2-.8 0-.2-.2-.4-.3-.5l-5.3-5.2-.3-.4-2.5 2.7-.8.8-.7.8s0 .2-.2.3l-.5.7v.2a17.4 17.4 0 0 0-2.2 5.2 16.2 16.2 0 0 0 0 6c.6 3.2 2.2 6 4.5 8.4L45 69.6a16 16 0 0 0 22.6 0l6-5.8a15.8 15.8 0 0 0 2.8-18.5V45c-1-1.5-2-2.7-3-3.8z"/><path d="M49 25.7L34.3 11.3a16 16 0 0 0-22.7 0l-5.8 6a15.8 15.8 0 0 0-3 18.4v.2c1 1.4 1.8 2.6 3 3.6L20.2 54s.2 0 .2.2c2 1.8 4 3 6.5 3.8a20.4 20.4 0 0 1-5.6-16l-9-8.8a6.6 6.6 0 0 1-2-4.8 7 7 0 0 1 2-4.8l5.8-5.8a7 7 0 0 1 9.7 0l14.4 14.4c.5.5 1 1 1.2 1.8a7 7 0 0 1 .3 5v.2a6.8 6.8 0 0 1-.8 1.5c0 .2-.2.2-.2.3l-.6.7L40 44l.3.7c0 .2.2.3.3.5l5.3 5.2.3.3 2.6-2.5a17.5 17.5 0 0 0 .7-1 14.3 14.3 0 0 0 1.3-1.7v-.2l.6-.8A15.8 15.8 0 0 0 49 25.6"/></g>
        </symbol>
        <symbol id="award" viewBox="0 0 80 81">
            <path d="M67 47.7c-.6 2-1.7 3.8-3.2 5.3-3 3-7 4.4-11.6 4.4H52a20 20 0 0 1-2.7 2.3l11.2 19.5 5-12.6 13.6 1.8-12-20.7zM29 57.4A16 16 0 0 1 17.2 53a14.5 14.5 0 0 1-3.4-5.3l-12 20.7 13.6-1.8 5 12.6 11.3-19.4c-1-.7-1.8-1.5-2.7-2.4h-.2zm-27 11zM52.3 52c3 0 5.8-1 7.8-2.8 2.4-2.4 3.2-6 2.6-10.3C66 36.2 68 33 68 29.6c0-3.4-2-6.6-5.4-9 .6-4.4-.2-8-2.6-10.5-2-2-4.7-2.8-7.8-2.8-.8 0-1.7 0-2.5.2C47 4.2 44 2.2 40.5 2.2c-3.5 0-6.6 2-9.2 5.4l-2.5-.2c-3.2 0-6 1-7.8 2.8-2.5 2.5-3.3 6-2.7 10.3C15 23 13 26.3 13 29.7c0 3.5 2 6.6 5.3 9.2-.6 4 .2 7.8 2.7 10.2 2 2 4.6 3 7.8 3l2.5-.3c2.6 3.3 5.7 5.3 9.2 5.3 3.4 0 6.6-2 9.2-5.4h2.5zm-6.6-10a8.4 8.4 0 0 1-10.3 0c-1.8-.2-3.5-1-4.8-2.3-1.3-1.3-2-3-2.4-4.8a8.5 8.5 0 0 1 0-10.4c.4-2 1.2-3.6 2.5-5 1.3-1.2 3-2 4.8-2.2a8.4 8.4 0 0 1 10.3 0c2 .2 3.6 1 5 2.3 1.2 1.3 2 3 2.3 5A8.4 8.4 0 0 1 53 35c-.4 1.7-1.2 3.4-2.5 4.7-1.3 1.3-3 2-5 2.4zm2-15.2c0-1.3-.2-2.5-1-3.3-.5-.6-1.4-1-2.4-1a6 6 0 0 0-.8.2c-.8-1-1.8-1.7-3-1.7-1 0-2 .6-2.8 1.7a6 6 0 0 0-.8 0c-1 0-2 .2-2.5.8-.8.8-1 2-1 3.3-1 .8-1.6 1.8-1.6 3 0 1 .7 2 1.7 2.8-.2 1.4 0 2.5 1 3.3.5.5 1.4.8 2.4.8h.8c.8 1 1.8 1.7 3 1.7 1 0 2-.7 2.8-1.7h.8c1 0 2-.3 2.5-1 .7-.6 1-1.8.8-3.2 1-.8 1.7-1.8 1.7-3 0-1-.6-2-1.7-2.8z" fill="#010101" fill-rule="evenodd"/>
        </symbol>
        <symbol id="bell" viewBox="0 0 80 80">
            <path d="M28 67c0 5.2 5 9.5 11.5 9.5C46 76.5 51 72.2 51 67H28zM38 3C24 3 14.2 14.6 14.2 29v19.6L5 64.6h69.6l-9.4-16V29c0-14.2-9.8-26-23.8-26H38z" fill="#000" fill-rule="evenodd"/>
        </symbol>
        <symbol id="berufsfeld" viewBox="0 0 80 80">
            <path d="M53.5 13.8l8.2-8.3L74.2 18 66 26.3 53.5 13.8zM53 39.2L46 32l5.3-5.4-2-2-5.4 5.3-3.4-3.4 8.6-8.6 12.5 12.6-8.6 8.6zm1.2 6.5c1.6-.8 3.2-1.3 4.7-1.3 8 0 15.4 7.6 15.5 15.6L73 61.5c-5.3-5.5-5.4-6-7.5-6h-1.7c-3 0-8.2 5-8.2 8.3 0 4-.5 3 6 9.3L60 74.6c-8 0-15.6-7.7-15.6-15.6 0-1.5.5-3 1.2-4.6l-20-20c-1.5.7-3 1.2-4.5 1.2C13 35.6 5.7 28 5.6 20L7 18.6c5.3 5.4 5.4 5.8 7.5 5.8h1.7c3 0 8.2-5 8.2-8.2 0-4 .5-3-6-9.3L20 5.4c8 0 15.6 7.7 15.6 15.6 0 1.6-.5 3.2-1.3 4.7l20 20zm-42.6 10l15-15 3.2 3.3-11.6 11.6 2 2L32 46l7 7.3-15 15-18.4 6 6-18.6z" fill="#1A1918" fill-rule="evenodd"/>
        </symbol>
        <symbol id="bowling" viewBox="0 0 80 81">
            <path d="M62.4 29l.5-8.6h-9l.5 8.6h8zM51.8 9.4v.3l1.8 7.3h10l1.8-7.6V9c0-4-3-7.2-6.8-7.2a7 7 0 0 0-6.8 7v.6zM30 35a20 20 0 0 0-19.5 20.2A20 20 0 0 0 30 75.5a20 20 0 0 0 19.6-20.3A20 20 0 0 0 30 35zm-8.5 15c-1 1-2.6.6-3.4-.6-.7-1-.4-2.7.7-3.5 1-1 2.6-.6 3.4.5 1 1.2.6 2.8-.5 3.6zm5.2-9.8c1-.8 2.6-.6 3.4.6 1 1 .6 2.7-.5 3.5-1 .8-2.6.5-3.4-.6-.7-1.2-.4-2.7.7-3.5zM30 53.7c-1 .8-2.7.5-3.4-.6-.8-1-.5-2.7.6-3.5 1-.8 2.6-.5 3.4.7.7 1 .5 2.7-.6 3.5zM63.6 32H53.3s-2.6 5.4-4 10.4a24.4 24.4 0 0 1 .3 25.4c.8 2.7 2.2 6.6 3.6 7.7h10.4s13.6-14.3 0-43.4z" fill="#010101" fill-rule="evenodd"/>
        </symbol>
        <symbol id="box-in" viewBox="0 0 80 81">
            <g fill="#000" fill-rule="evenodd"><path d="M78 46L63.6 7.6h-13v8.7H59L68.4 46H50.2l-5 8.7h-12L29 46H10.6l9.7-29.6h8V7.7H15.6L1 46v28.7h77V46"/><path d="M34.5 27.6H20.2l19 21.8 19-21.8H43.8v-20h-9.5v20"/></g>
        </symbol>
        <symbol id="box-out" viewBox="0 0 80 81">
            <g fill="#000" fill-rule="evenodd"><path d="M79 45.5L64.6 7.2H48.4l6.4 8.7h5l9.6 29.5H51.2l-5 8.7h-12L30 45.5H11.6L21.3 16h5L32.6 7h-16L2 45.5v28.7h77V45.5"/><path d="M40.2 6.2L21.2 28h14.3v19.8H45v-20h14L40.3 6.3"/></g>
        </symbol>
        <symbol id="brain" viewBox="0 0 80 82">
            <path d="M63.7 23c0-1-1-2.6-1.5-3.2-.6-.6-1.3-1.3-1.3-2-.2-.4-.5-1.6-2-1.6-1.2 0-1.2-1.3-1.7-1.8S56 12.4 55 13c-1 .5-1.3-1.4-2.2-1.7-1-.3-1.8-1-3-.2-1.5.8-1.4-1.2-2-1.7-.3-.4-1.7-.6-2.3.2-.7.7-2 0-2.7-.6-.6-.7-2.3-.5-2.8 0-.5.6-2.4 1-3.4 1s-2.7.6-2.7 1c0 .6-3 2.4-4.5 3-1.6.5-1.7 2-1.6 2.8 0 1-1 2.3-2.2 3.6-1 1.2-.3 1.5-.5 2.7-.3 1.4 0 1.4-.4 3-.5 1.5 1 4 1 4s2 .7 2 2c0 1.5 2 .8 2.7.7.8 0 2.2.5 3.8 2 1.5 1.5 1.7.7 3 0 1.4-1 2-.2 2.8.7 1 1 2 .7 2.8 0 .8-1 3.2-.7 4.4-.7 1.2 0 .8.7.2 2.3-.5 1.5 1.4.5 2 .5.5 0 .6.6 1.5 2 1 1.5 2.2 1.6 3 2.6 1 1 2-1.3 3-2.5s2.6-1.7 4.3-1.8c1.7 0 1-1 1-2s0-2 .6-2.8c.6-1 1.3-1.7.6-2.5-.7-.7 0-1.5.6-2.2.6-.7.3-2-.5-3-.7-.7 0-1.5 0-2.4zm7.3-3C69 4.8 48.4 1.3 44.7 1.3h-1C37 1.3 16.3 3 14.6 24c-.2 2.8-1.7 11-5 14-.7 1-2.2 2.5-1.5 4.3.7 1.7 2.5 1.7 4 1.7h1c0 1.3-.2 2-.3 2.4-.3.4-.4 1-.4 1.6 0 .8.3 1.8 1.6 2.4-.8 1.2-.6 2.4.3 3.5.4.2.6.4.6 3.2 0 1.8.8 3.5 2.2 4.6a7.6 7.6 0 0 0 5.8 1.5h.4c1-.3 1.8-.4 2.7-.4 1.3 0 2 .2 2.5 1 .5.5 1 1 1.3 1.5C31.2 67 32 68 32 72.3c0 3.2.6 4.5.7 4.8l.3 1c0 .2.3.4.5.4H63l.4-.3v-.4l-.5-2S58 59.3 64.6 47.4c1-2 2-3.5 2.8-5C72.2 34.3 73 33 71 20zm-7 20.3l-2.8 5a44.3 44.3 0 0 0-2.8 29h-22c-.2-.6-.2-1.3-.2-2 0-5.8-1.7-7.7-3.4-9.6l-1-1.2c-1.4-1.8-3.2-2.7-5.7-2.7-1 0-2.2.2-3.2.4h-1c-.3 0-2.7 0-2.7-2 0-2.7 0-4.2-1-5.4a4 4 0 0 0 .6-2A3 3 0 0 0 17 47c0-.7.3-1.6.4-3.3a3 3 0 0 0-.7-2.4c-1-1-2-1.2-3.2-1.3 4-5.3 5.2-15.2 5.3-15.7 1.3-17 17.8-19 24.7-19h1.2c.2 0 20.5 2 22.4 15.3 1.7 11.5 1.4 12-3 19.7z" fill="#010101" fill-rule="evenodd"/>
        </symbol>
        <symbol id="buggy" viewBox="0 0 80 80">
            <path d="M52.2 61a8 8 0 1 0 0 16 8 8 0 0 0 0-16zm-29.4-.2a8 8 0 1 0 0 16 8 8 0 0 0 0-16zm48-30.8l5-.5S69 22 70 12.3C62.3 11.3 59.4 7 56.5 3c-7.7 1.7-10.8 1-17-3l.5 31h-2.5c-22 0-33.2-2.5-33.2-2.5v2.3s-4.2 25 33.2 25c37.5 0 33.3-25 33.3-25V30z" fill="#010101" fill-rule="evenodd"/>
        </symbol>
        <symbol id="calc" viewBox="0 0 80 80">
            <path d="M9 70.8c0 4.7 3.8 8.6 8.6 8.6h45.8c4.8 0 8.6-4 8.6-8.6v-43H9v43zm51.5-37.4h3a3 3 0 0 1 0 5.8h-3a3 3 0 0 1 0-5.8zm0 11.3h3a3 3 0 0 1 0 5.7h-3a3 3 0 0 1 0-5.7zM57.7 59s-.7-2.6 2.8-2.6h3c2.5 0 3 2.8 3 2.8l-.2 11.6a3 3 0 0 1-3 2.8h-2.8c-1.5 0-2.8-2.8-2.8-2.8V59zM46.2 33.5h3a3 3 0 0 1 0 5.8h-3a3 3 0 0 1 0-5.8zm0 11.3h3a3 3 0 0 1 0 5.7h-3a3 3 0 0 1 0-5.7zm0 11.7h3a3 3 0 0 1 0 5.7h-3a3 3 0 0 1 0-5.6zm0 11.5h3a3 3 0 0 1 0 5.6h-3a3 3 0 0 1 0-5.7zM32 33.3h2.8a3 3 0 0 1 0 5.8h-3a3 3 0 0 1 0-5.8zm0 11.3h2.8a3 3 0 0 1 0 5.7h-3a3 3 0 0 1 0-5.7zm0 11.7h2.8a3 3 0 0 1 0 5.7h-3a3 3 0 0 1 0-5.6zM32 68h2.8a3 3 0 0 1 0 5.6h-3a3 3 0 0 1 0-5.7zM17.5 33.3h3a3 3 0 0 1 0 5.8h-3a3 3 0 0 1 0-5.8zm0 11.3h3a3 3 0 0 1 0 5.7h-3a3 3 0 0 1 0-5.7zm0 11.7h3a3 3 0 0 1 0 5.7h-3a3 3 0 1 1 0-5.6zm0 11.5h3a3 3 0 0 1 0 5.6h-3a3 3 0 0 1 0-5.7zM63.4 1.7H17.6c-4.8 0-8.6 4-8.6 8.7v14.3h63V10.5c0-4.8-3.8-8.7-8.6-8.7zm3 17.3H14.6V7.7h51.6V19z" fill="#010101" fill-rule="evenodd"/>
        </symbol>
        <symbol id="calendar" viewBox="0 0 80 80">
            <path d="M64.2 12.5v-4c0-4-2.5-6.5-6.7-6.5s-6.7 2.4-6.7 6.4v4h-4.6v-4c0-4-2.5-6.4-6.7-6.4s-6.7 2.4-6.7 6.4v4h-4.6v-4c0-4-2.5-6.4-6.7-6.4-4.3 0-6.8 2.4-6.8 6.4v4H7V78h65V12.5H64zm-9.8-4c0-2 1-3 3-3 2.3 0 3.2 1 3.2 3v10.8c0 2-1 2.8-3 2.8-2.3 0-3.2-.7-3.2-2.7v-11zm-18 0c0-2 1-3 3-3 2.3 0 3.2 1 3.2 3v10.8c0 2-1 2.8-3 2.8-2.3 0-3.2-.7-3.2-2.7v-11zm-18 0c0-2 .8-3 3-3 2.3 0 3.2 1 3.2 3v10.8c0 2-1 2.8-3 2.8-2.4 0-3.3-.7-3.3-2.7v-11zm-6 18.5h54v45.4h-54V27z" fill="#000" fill-rule="evenodd"/>
        </symbol>
        <symbol id="calendar2" viewBox="0 0 80 80">
            <g fill="#1A1918" fill-rule="evenodd"><path d="M64 14.8H61V22a3 3 0 0 1-3 3H57c-1.6 0-2.8-1.3-2.8-3v-7.2H27.7V22c0 1.7-1 3-2.8 3H24a3 3 0 0 1-3-3v-7.2h-4.4c-7.2 0-13.3 5.8-13.3 13v35.7c0 7.2 6 13 13.3 13h47.4a13 13 0 0 0 12.8-13V27.8c0-7.2-5.6-13-13-13zm-32.6 31h18.4V56H31.4V45.7zm0 13.8h18.4V70H31.4V59.5zm0-28h18.4V42H31.4V31.7zm-20.6 0h17V42h-17V31.7zm0 14h17V56h-17V45.7zm0 18.2v-4.2h17V70H17a6.2 6.2 0 0 1-6.2-6.2zm59.5 0a6 6 0 0 1-6 6h-11V59.7h17v4.2zm-17-18h17V56h-17V45.7zm0-14h17V42h-17V31.7zM27.7 6c0-1.6-1-3-2.8-3H24a3 3 0 0 0-3 3v8.8h6.5V6M60.8 6a3 3 0 0 0-3-3H57a3 3 0 0 0-2.8 3v8.8h6.6V6"/></g>
        </symbol>
        <symbol id="car" viewBox="0 0 80 81">
            <path d="M36.8 17.7h7.7c.7 0 1.4-.6 1.4-1.4l-.2-1.2c0-.7-.7-1.3-1.5-1.3H37c-.8 0-1.5.6-1.5 1.4v1.3c0 .8.6 1.4 1.3 1.4zm42 9h-7.5a2 2 0 0 0-1 .4l-3.5-13.3C65.8 8 61.6 4 56.6 4h-32c-6 0-9.5 4.8-10.4 9.7L10.8 27a2 2 0 0 0-1-.2H2a2 2 0 0 0-2.2 2v2c0 1 1 2 2.2 2l2.8.5a13 13 0 0 0-1.4 6l-1 12V71c0 2 1.6 3.7 3.7 3.7H12c2 0 3.8-1.7 3.8-3.7v-8h49.4v8c0 2 1.7 3.7 3.8 3.7h5.7c2 0 3.8-1.7 3.8-3.7V53v-.6-1l-1-12a13 13 0 0 0-1.5-6l2.8-.6c1.2 0 2-1 2-2v-2c0-1-.8-2-2-2zm-62-2l2.4-10c.3-1.3 1-2.7 1.7-3.7H60c.8 1 1.3 2.4 1.6 3.7l2.5 10 1 3.7c-.3 2.7-3.5 4.8-6.3 4.8H22c-2.7 0-6-2-6.2-4.8l1-3.7zM18.4 56a5.7 5.7 0 0 1-5.7-5.6c0-3 2.5-5.6 5.7-5.6s5.7 2.5 5.7 5.6c0 3-2.6 5.7-5.7 5.7zm31.8-4c0 .8-.7 1.6-1.6 1.6h-16c-1 0-1.7-.8-1.7-1.7V47c0-1 .7-1.7 1.7-1.7h16c1 0 1.6.8 1.6 1.7V52zm12.3 4a5.7 5.7 0 0 1-5.7-5.6c0-3 2.4-5.6 5.6-5.6 3 0 5.7 2.5 5.7 5.6 0 3-2.6 5.7-5.7 5.7z" fill="#010101" fill-rule="evenodd"/>
        </symbol>
        <symbol id="chart-line-2" viewBox="0 0 80 80">
            <path d="M32.7 32.7c1-.3 3.5 1.2 6.6 6.3 4 6.4 10 14.6 16.4 14.6.7 0 1.4 0 2-.3C62.6 52 68 46.6 68.5 18H77L64.7 3.4 52.3 18h8.5c-.5 25.4-5 28-5 28s-3 0-10-11c-4.6-7.7-9.6-11-14.8-10-11 2.5-16.3 26-18.5 39.3V2H3v74H77v-9.5H20c2.7-16.4 8-32.8 12.7-33.8z" fill="#010101" fill-rule="evenodd"/>
        </symbol>
        <symbol id="chart-line" viewBox="0 0 80 81">
            <path d="M17 46.2l5.4-3.8 8.2 9.6L40 31.7l10.4 30.7 9-21.4 3.5 8.8 4-.8-7.7-18.4L50.8 51 40.6 21 29.4 45l-6.2-7.3-10.5 7.5 3 2 1.4-1zM1 10v63.5h78V10H1zm70.4 56H8.6V17.4h62.8V66z" fill="#010101" fill-rule="evenodd"/>
        </symbol>
        <symbol id="chart-pie" viewBox="0 0 80 80">
            <g fill="#000" fill-rule="evenodd"><path d="M39.5 44.4h-4.8V1a38.6 38.6 0 1 0 43 43.4H39.4"/><path d="M39 1v38.7h38.6A38.6 38.6 0 0 0 39 1"/></g>
        </symbol>
        <symbol id="check-bg" viewBox="0 0 80 81">
            <path d="M63.5 2.2H14.3A14 14 0 0 0 .5 16v49.2A14 14 0 0 0 14.3 79h49.2a14 14 0 0 0 13.8-13.8V16A14 14 0 0 0 63.5 2.2zm-.3 28.5L36.6 57.4c-.7.7-2.3 1.4-3.3 1.4H31c-1 0-2.6-.7-3.4-1.4L15 44.8a2 2 0 0 1 0-2.8l5-5a2 2 0 0 1 2.8 0l8 8c.8.8 2 .8 2.8 0l22-22a2 2 0 0 1 2.7 0l5 5c.7.7.7 2 0 2.7z" fill="#000" fill-rule="evenodd"/>
        </symbol>
        <symbol id="check" viewBox="0 0 80 80">
            <path d="M78 19.7L70.2 12a3 3 0 0 0-4.4 0L31.2 47a3 3 0 0 1-4.5 0L14 34.4a3 3 0 0 0-4.3 0l-7.8 8a3.2 3.2 0 0 0 0 4.3l19.7 20.2A8.6 8.6 0 0 0 27 69h3.6c1.8 0 4-1 5.4-2.2l42-42.6a3.2 3.2 0 0 0 0-4.5z" fill="#000" fill-rule="evenodd"/>
        </symbol>
        <symbol id="checkbox-active" viewBox="0 0 80 80">
            <g fill="#000" fill-rule="evenodd"><path d="M63.2 29L36.6 55.6c-.7.8-2.3 1.4-3.3 1.4H31c-1 0-2.6-.6-3.4-1.4L15 43a2 2 0 0 1 0-2.7l5-5a2 2 0 0 1 2.8 0l8 8c.8.8 2 .8 2.8 0l22-22a2 2 0 0 1 2.7 0l5 5c.7.7.7 2 0 2.7z"/><path d="M2 78V1.5h76.6V78H2zM73 7H7.6v65.4H73V7z"/></g>
        </symbol>
        <symbol id="checkbox" viewBox="0 0 80 80">
            <path d="M2 78V1.5h76.6V78H2zM73 7H7.6v65.4H73V7z" fill="#000" fill-rule="evenodd"/>
        </symbol>
        <symbol id="clipboard" viewBox="0 0 80 80">
            <path d="M27.4 20H53s2.5 0 2.5-2.5c0 0 0-2.7-2.5-2.7 0 0 0-2.5-2.7-2.5h-2.5s-2.5 0-2.5-2.6v-5s0-2.7-5-2.7c0 0-5.3 0-5.3 2.6v5s0 2.7-2.6 2.7h-2.6s-2.4 0-2.4 2.5c0 0-2.5 0-2.5 2.6 0 0-.2 2.6 2.4 2.6zM40.2 4.6s2.5 0 2.5 2.5c0 0 0 2.7-2.5 2.7 0 0-2.7 0-2.7-2.6 0 0 0-2.4 2.7-2.4zm23 7.7h-7.6s2.5.5 2.5 2.6v5s0 2.6-2.8 2.6H24.7s-2.5-.2-2.5-2.6v-5s0-2.7 2.6-2.7H17s-5 0-5 5V74s0 5 5 5h46.2s5 0 5-5.2V17.3s0-5-5-5zM55.6 52c0 .8-.6 1.3-1.3 1.3H26c-.6 0-1.2-.5-1.2-1.2S25.4 51 26 51h28.4c.7 0 1.3.5 1.3 1.3zm-1.4-3.8H26c-.6 0-1.2-.6-1.2-1.3 0-1 .6-1.3 1.3-1.3h28.3c.7 0 1.3.4 1.3 1.2 0 .6-.6 1.2-1.3 1.2zm-27-18h18a2.6 2.6 0 0 1 0 5.2h-18a2.6 2.6 0 0 1 0-5.2zM26 40.6h28.2c.7 0 1.3.5 1.3 1.2S55 43 54.2 43H26c-.7 0-1.3-.5-1.3-1.2s.6-1.2 1.3-1.2zM26 56h28.3c.7 0 1.3.5 1.3 1.2s-.6 1.3-1.3 1.3H26c-.7 0-1.3-.6-1.3-1.3 0-.7.6-1.2 1.3-1.2zm39.8 18c0 2.4-2.7 2.4-2.7 2.4H17.3c-2.6 0-2.6-2.5-2.6-2.5V17.2c0-2.4 2.4-2.5 2.4-2.5h2.8v2.6S17 17.4 17 20v51.2c0 2.6 2.7 2.7 2.7 2.7h41c2.3 0 2.5-2.8 2.5-2.8V20c0-2.6-2.6-2.7-2.6-2.7v-2.5h2.6c2.5 0 2.6 2.6 2.6 2.6V74z" fill="#010101" fill-rule="evenodd"/>
        </symbol>
        <symbol id="cloud" viewBox="0 0 80 81">
            <path d="M69.5 38.4V37a23.2 23.2 0 0 0-44-10A10.7 10.7 0 0 0 8.7 38.6a15.6 15.6 0 0 0 7.8 29.2h18.8v-15h-9.8c-1.6 0-2-1-1-2.2L38 34.4c1-1.2 2.6-1.2 3.6 0l13.6 16.2c1 1.2.5 2-1 2H44V68H63.6a15.3 15.3 0 0 0 6-29.4z" fill="#000" fill-rule="evenodd"/>
        </symbol>
        <symbol id="cog" viewBox="0 0 80 80">
            <path d="M76 33.2l-11.3-2c-1-.3-1.5-1.2-1-2.2l6.6-9.6c.6-1 .5-2.3-.3-3L63.8 10c-.8-.8-2.2-1-3.2-.3L51 16.2c-1 .6-2 .3-2-.8L46.7 4c-.2-1-1.3-2-2.4-2h-8.8c-1 0-2.2 1-2.4 2l-2 11.4c-.3 1-1.2 1.4-2.2.8l-9.6-6.5c-1-.6-2.4-.5-3 .3L10 16.3c-.8.7-1 2-.3 3l6.5 9.7c.6 1 .3 2-.8 2L4 33.3c-1 .2-2 1.3-2 2.4v8.8c0 1 1 2.2 2 2.4l11.4 2c1 .3 1.4 1.2.8 2.2l-6.5 9.6c-.6 1-.5 2.4.3 3l6.3 6.4c.7.8 2.2 1 3 .3l9.7-6.5c1-.6 2-.2 2 .8L33.3 76c.2 1 1.3 2 2.4 2h8.8c1 0 2.2-1 2.4-2l2-11.4c.3-1 1.2-1.4 2.2-.8l9.6 6.5c1 .6 2.4.5 3.2-.3l6.2-6.3c.8-.7 1-2 .3-3L63.8 51c-.6-1-.2-2 .8-2L76 46.7c1-.2 2-1.3 2-2.4v-8.8c0-1-1-2.2-2-2.4zM40 53.8a13.7 13.7 0 1 1 0-27.5 13.7 13.7 0 0 1 0 27.5z" fill="#000" fill-rule="evenodd"/>
        </symbol>
        <symbol id="console" viewBox="0 0 80 81">
            <g fill="#000" fill-rule="evenodd"><path d="M75 8.2H4.6A2.6 2.6 0 0 0 2 10.8v58.5C2 70.7 3.2 72 4.6 72H75c1.5 0 2.6-1.3 2.6-2.7V10.8c0-1.5-1-2.6-2.6-2.6zm-8 5.3c1.6 0 2.8 1.2 2.8 2.6a2.6 2.6 0 1 1-2.7-2.5zm-9.3 0c1.4 0 2.6 1.2 2.6 2.6 0 1.6-1.2 2.8-2.6 2.8a2.6 2.6 0 0 1 0-5.3zm-9.5 0a2.6 2.6 0 1 1 0 5.3 2.6 2.6 0 0 1 0-5.3zm24.2 53.2h-65V23.5h65v43.2z"/><path d="M16.5 55.5a1 1 0 0 0 1 0L31 46c.3-.2.4-.6.4-1v-4a1 1 0 0 0-.4-.7L17.5 31a1 1 0 0 0-1 0 1 1 0 0 0-.6.8v4.6c0 .4 0 .7.3 1l7.4 5.7-7.4 6a1 1 0 0 0-.4.8v4.7c0 .4 0 .8.5 1zM30.2 55.5v1.7c0 .8.7 1.5 1.5 1.5h17.5c.8 0 1.5-.7 1.5-1.5v-1.7c0-1-.7-1.6-1.5-1.6H31.7c-.8 0-1.5.6-1.5 1.5z"/></g>
        </symbol>
        <symbol id="coupon" viewBox="0 0 80 81">
            <path d="M50.4 42.2c.5.5 1 .7 2 .5.7-.2 1-.6 1.2-1.4 0-.7 0-1.8-.4-3.3a7.7 7.7 0 0 0-1.2-3c-.5-.5-1-.6-2-.4-.4 0-.8.4-1 .7-.2.4-.3 1-.3 1.5 0 .6.2 1.4.4 2.3a8 8 0 0 0 1.4 3.2zm23-3.3a14 14 0 0 1-3.8 4.4l.7 2.5c.4 1.7.2 3.5-.8 5a6.8 6.8 0 0 1-4 3.2L19 66c-.4 0-.8 0-1.2.2v1c0 1.5 1.2 2.6 2.6 2.6h48c1.3 0 2.5-1 2.5-2.6v-5.6c5.6-1 9-5.4 9-11.8 0-5.3-2.4-9.2-6.5-11zm-43.8-7.2c.2 1 .5 1.7.7 2.2.3.6.6 1 1 1.2.4.3.8.3 1.4.2.8-.2 1.2-.7 1.3-1.5a9 9 0 0 0-.4-3.4c0-.3 0-.5-.2-.8-.3-1-.6-1.7-1-2-.5-.7-1-.8-2-.6-.4 0-.8.3-1 .7-.2.3-.3.8-.3 1.4l.2.4c0 .6.2 1.2.4 2zM18 62l46.3-11.8a2.6 2.6 0 0 0 2-3.2l-1.5-5.5c3.4-1.6 5.5-4.2 6-7.6a14 14 0 0 0-.5-7.2s0-.2-.2-.3v-.7l-.3-.4-.2-.6-.3-.4c0-.2 0-.3-.2-.5 0-.2-.2-.3-.3-.5l-.3-.4-.3-.3a12.8 12.8 0 0 0-.5-.7l-.4-.4a10.7 10.7 0 0 0-.5-.6c-.2 0-.3-.2-.4-.3l-.3-.3-.4-.2a8.8 8.8 0 0 0-.8-.4l-.4-.2A9.4 9.4 0 0 0 63 19h-1.6c0-.2-.3-.2-.4-.2h-.7H59l-1.5-5.5c0-.2 0-.3-.2-.5a3 3 0 0 0-.3-.5l-.3-.2c-.2 0-.3-.2-.3-.2h-.2c0-.2-.2-.2-.3-.3h-.7a3 3 0 0 0-1 0L8 23a2.6 2.6 0 0 0-2 3.2L7.4 32C2.2 34 0 39.2 1.6 45.4c0 .4.2.7.3 1v.4l.3.6v.4l.4.6s0 .3.2.4c0 .2 0 .3.2.5l.2.4.4.4s0 .2.2.3l.4.4a10.4 10.4 0 0 0 2.4 2.2c.2 0 .3.2.5.3h.3l.5.3.5.2c.2 0 .3 0 .5.2h.3l.6.2h.3c.2 0 .4 0 .6.2H13.3l1.4 5.5.2.5v.2a1.7 1.7 0 0 0 .3.4c0 .2 0 .2.2.3l.4.3c0 .2.2.2.4.3H18zm34-29.6c.6 0 1.2.3 1.8.7.6.5 1 1 1.5 1.8.4.7.7 1.6 1 2.6.5 2 .5 3.7-.2 5a5 5 0 0 1-3.2 2.3c-1 .3-2 .3-2.8 0-1-.2-1.7-.7-2.3-1.4a7.7 7.7 0 0 1-1.5-3.2c-.6-2-.6-3.6 0-5 .5-1 1.6-2 3.4-2.4a6 6 0 0 1 2.3-.2zm-7.7-9.8c0-.5.3-.8.4-1 0-.3.3-.5.7-.6h.8c.3.2.4.5.5.8l-.2 1.4-2 6.6-6 18.4c0 .7-.4 1-1 1.2H37a1 1 0 0 1-.6-.7c0-.3 0-.6.2-1l5.6-18 2.3-7zm-18 6.6c0-1 .3-2 1-2.6.6-.6 1.5-1 2.7-1.4a6 6 0 0 1 2.3-.2c.7 0 1.3.3 2 .8.5.4 1 1 1.4 1.6l1 2.4v.2c.5 2 .5 3.7-.2 5a5 5 0 0 1-3.3 2.4c-1 .2-2 .2-2.8 0-1-.2-1.6-.7-2.3-1.5a8 8 0 0 1-1.4-3.2 12 12 0 0 1-.4-3.6zM16.5 43c-.4-.3-.7-.7-.8-1 0-.6 0-1 .2-1.4.2-.4.7-.7 1.4-1l4.3-1h1.6c.4.3.7.7.8 1 .2.6.2 1 0 1.4-.3.4-.8.7-1.5 1l-4.3 1h-1.6z" fill="#010101" fill-rule="evenodd"/>
        </symbol>
        <symbol id="cutlery-euro" viewBox="0 0 80 80">
            <g fill="#010101" fill-rule="evenodd"><path d="M8.5 29.8c1.4-1.6 1-3.8 1-5.7v-.7L9 12h-.5l-.5 11.2s-.4 1.2-1 0c-.5-1-.3-9.5-.2-11h-.3L6 23s-.5 1.6-1 .2c-.7-1.5-.4-10.4-.3-11h-.4l-.8 10.6s-.4 1.7-1 .2c-.3-1.5 0-10.8 0-10.8H2s-.7 5.6-.8 11v1c0 1.4 0 3 .4 4.4.4 1 1.7 1.7 2.7 2.4l.2.5v3C4.6 38 3.4 65 3.4 65s-1 4 2.5 4.2c3.5 0 2.7-3.3 2.7-3.3L7 32.4v-1c.2-.8 1-1.2 1.5-1.7zM40 15.5A25.6 25.6 0 0 0 14.5 41C14.4 55 26 66.2 40 66.2S65.8 55 65.8 41c0-14-11.5-25.5-25.6-25.5zm0 46a20.7 20.7 0 0 1-20.7-20.6c0-11.4 9.3-20.6 20.8-20.6S61 29.6 61 41c0 11.2-9.3 20.4-20.7 20.4zm38.5-28.8c1-7.6-1.6-18.2-3.3-20-1.7-2-2.3-.2-2.3-.2l-.7 53.2s0 3 2.8 2.5c3-.5 2.6-2.2 2.6-2.2l-1.2-18s-.7-10.4-.6-11.8c0-1.4 2.7-3.5 2.7-3.5z"/><path d="M37 47.7c-.5-.8-1-1.8-1.3-3h8.5l.6-3h-9.5a26.2 26.2 0 0 1 0-2.5h10l.6-2.8H35.6c.3-1.2.8-2.3 1.5-3 1.2-1.5 3-2.2 5-2.2s3.4.5 4.5 1.5l1-5c-1.5-.8-3.3-1.2-5.3-1.2a12 12 0 0 0-9.3 3.7 12.6 12.6 0 0 0-3 6.2h-2.2l-.6 2.8h2.4a27.3 27.3 0 0 0 0 2.5h-1.8l-.6 2.8H30c.4 2.5 1.5 4.6 3 6.3 2.4 2.5 5.4 3.7 9 3.7 2.2 0 4-.4 5.7-1.2v-5.6a7.6 7.6 0 0 1-5.7 2 6 6 0 0 1-5-2z"/></g>
        </symbol>
        <symbol id="cutlery" viewBox="0 0 80 80">
            <path d="M36.7 30.3c0 1.5-1.2 2.7-2.6 2.7a2.7 2.7 0 0 1-2.6-2.7v-25H25v25c0 1.5-1 2.7-2.5 2.7a2.7 2.7 0 0 1-2.7-2.7v-25H14l.2 25.6s.2 9.7 9.5 9.7L23.5 79h9.7V40.5c9.5 0 9.3-9.6 9.3-9.6V5.2h-5.8v25zm15.8-3.7c0 14 5 23.5 5 23.5v29H67V2S52.5 2 52.5 26.6z" fill="#010101" fill-rule="evenodd"/>
        </symbol>
        <symbol id="d-arrow-down" viewBox="0 0 80 80">
            <g fill="#000" fill-rule="evenodd"><path d="M68.5 73.7l-3-3c-.8-1-2-2-3.2-3.4a27 27 0 0 1-4-4.7C53.2 55.3 46 45.6 39 36l-2.7-3.5-3-3.4a58 58 0 0 0-19-13c-2-.8-3.7-1.4-5.3-2.3-1.6-.7-3-1-4.4-1.5l-4-.5 1-.2c.8 0 1.8-.5 3.2-.5 1.3 0 3 0 4.8.3 1.8.4 4 .6 6 1.7A63 63 0 0 1 36 27l3 3.3 2.8 3.7c7 9.7 14 19.4 19.4 26.6 1.4 1.7 2.5 3.5 3.3 5.2 1 1.6 1.7 3 2.3 4.2l2 3.7"/><path d="M71.7 50.7c0 1-.4 2.3-.5 3.4L68.4 74l-15.8-4-7-1.4-6.6-3c2.4-.3 5-.2 7.3-.3l7 1.7L65 69.4l1.2-.2L68 53.6c.2-1 .2-2.3.5-3.4 1-2.3 1.6-4.5 2.6-6.7.5 2.4.5 4.8.7 7.2z"/></g>
        </symbol>
        <symbol id="d-arrow-up" viewBox="0 0 80 80">
            <g fill="#000" fill-rule="evenodd"><path d="M77.2 16.6s-1.2 1-3.4 2.4l-4 2.5a27 27 0 0 1-5.4 3l-29.8 14c-1.3.6-3 1.3-4 2l-3.8 2A58 58 0 0 0 10.4 59C9 60.6 8.2 62.3 7 63.6c-1 1.5-1.6 3-2.3 4a39 39 0 0 0-1.3 4v-1.2-3c.5-1.4.7-3 1.4-4.8.7-1.7 1.3-4 2.8-5.6A63 63 0 0 1 25 39.8l4-2.2c1.5-1 2.7-1.4 4-2 11-5 21.8-10.2 30-14 2-1 4-1.8 5.7-2.3l4.5-1.5 4-1.2"/><path d="M55.2 9c1.2.5 2.2 1 3.4 1.3l18.7 6.5-6.8 14.7-2.8 6.6c-1.5 2-2.8 4-4.4 6 .3-2.4 1-4.8 1.3-7.2l2.8-6.5 5-11V18l-15-4.6-3.3-1.2c-2-1.3-4-2.4-6-4l7.2 1z"/></g>
        </symbol>
        <symbol id="dashboard" viewBox="0 0 80 80">
            <path d="M75 58A39 39 0 0 1 22.7 75a39 39 0 0 1-21-34.5A39 39 0 1 1 75.2 58zM40.7 11.3a29.2 29.2 0 0 0-27.3 39.4A14.6 14.6 0 0 1 31.7 68c.4 0 .8.3 1.2.4a29 29 0 0 0 15.7 0c.3-.3.7-.4 1-.5A14.6 14.6 0 0 1 68 50.3a28.6 28.6 0 0 0 1.8-10c0-16-13-29-29-29zm16 27.6v-3.6h8.8v3.6h-9zm-6-11.5l6.2-6.2 2.5 2.6L53 30l-2.5-2.7zm-9.8 19c-.7 0-1.5-.2-2.2-.5a5.8 5.8 0 0 1-3.6-6.3l-5.2-22.8 2-.8 12.5 19.7a6 6 0 0 1-3.5 10.5zm-2-32.2h3.6v9h-3.6v-9zm-18 9.6l2.5-2.5 6.3 6.3L27 30l-6.3-6.4zm4 15.2h-9v-3.6h9v3.6z" fill="#000" fill-rule="evenodd"/>
        </symbol>
        <symbol id="dog" viewBox="0 0 80 80">
            <path d="M76.6 23.6c-9-5-18-9.5-27-14.3-4 3-2.2 8-2.6 14.4C34 17.5 20.5 7 7.4 1.2c-1.6 2 1 4-.2 7C21.2 15 33.4 23.6 47 30.8c-9.8 1.4-20 1-30.5 1C14 28.2 6 23 5.5 32c2 3.5 7.8 5.5 8.8 9.3 2.2 8-2.6 24.8 0 32.5 8 3.7 11-4.3 11-11.5 3.4 2 4.3 11 9 11.6 3 .3 5.6-1.7 5.7-4.7 0-2-2.4-5.3-3.7-7.5-1.5-2.4-4-4.3-4.2-7.5 6.3 0 13.7-.7 19 .4 1 6.6-1.6 14 1 18.8 13.7 3.8 7.6-18 9.2-31.5.4-3.4 1.2-6 .2-9 4-.7 9-.2 12.6-.5 0-3.5 3-6 2.6-9zM49.2 30v-2.3c4.4 1.4 9.5 2 9.8 7.2-4.3-.7-6.5-3.4-9.8-5z" fill="#010101" fill-rule="evenodd"/>
        </symbol>
        <symbol id="dot" viewBox="0 0 80 80">
            <path d="M32 40.4a8.4 8.4 0 1 1 16.8 0 8.4 8.4 0 0 1-16.8 0" fill="#000106" fill-rule="evenodd"/>
        </symbol>
        <symbol id="down" viewBox="0 0 81 81">
            <path d="M2.7 22.5l38 36.4 38-36.5h-76z" fill="#000" fill-rule="evenodd"/>
        </symbol>
        <symbol id="download" viewBox="0 0 80 81">
            <g fill="#000" fill-rule="evenodd"><path d="M69 46.6V62H12.6V46.7H3v26h75.2v-26H69z"/><path d="M57.6 30.8l-17 19.5-17-19.5h34z"/><path d="M33.8 11.5h13v22.7h-13z"/></g>
        </symbol>
        <symbol id="drink" viewBox="0 0 80 80">
            <path d="M64.2 7.3V2H46.4l-2 14.3H16.7l9 58.7H55L64 16.3H49.8l1.2-9h13.2zM39.8 49.8H27.2l-4.4-28.2h21l-4 28.2zM58 21.6l-4.5 28.2h-8.3l4-28.2H58z" fill="#010101" fill-rule="evenodd"/>
        </symbol>
        <symbol id="dumbbell" viewBox="0 0 80 80">
            <path d="M72.5 35v-4.3c0-2.8-1.8-5-4-5h-.3c-2 0-3.8 2-4 4.4v-7.6c0-2.7-1.8-5-4-5h-.4c-2.2 0-4 2.3-4 5V35H24.2V22.5c0-2.7-1.8-5-4-5H20c-2.4 0-4.2 2.3-4.2 5V30c-.2-2.4-2-4.3-4-4.3h-.3c-2.2 0-4 2.2-4 5V35H2v13h5.5v4.4c0 2.8 1.8 5 4 5h.4c2 0 3.6-2 3.8-4.4v7.7c0 2.7 1.8 5 4 5h.4c2.2 0 4-2.3 4-5V48h31.6v12.7c0 2.7 1.8 5 4 5h.4c2.2 0 4-2.3 4-5V53c.2 2.5 2 4.4 4 4.4h.3c2.2 0 4-2.2 4-5V48H78V35h-5.5z" fill="#010101" fill-rule="evenodd"/>
        </symbol>
        <symbol id="education" viewBox="0 0 80 80">
            <path d="M40 47l-24-9.8a70 70 0 0 1 19.4-3.6c1 1 2.5 1.6 4.5 1.6 3 0 5.2-1.5 5.2-3.5S43 28.2 40 28.2c-3.2 0-5.5 1.4-5.5 3.5-4.2.2-17.5 1-21 4.5l-.8-.3-.5-.3-9.8-4L40 16.2l37.4 15.3L40 47zm0-17c1.8 0 3.4.8 3.4 1.7 0 1-1.6 1.6-3.5 1.6-2 0-3.6-.7-3.6-1.6 0-1 1.5-1.7 3.5-1.7zM14 45.2c.6.6 1.3 1.6 1 2.4l-.2 2a6 6 0 0 0-5-.4l.5-2.4c0-.7.8-1.5 1.5-2l1.8-8.6 2.3 1-2 8zm-3.4 6a3.7 3.7 0 0 1 2.8.2c.2 0 .3 0 .5.2l1.5.8c.5 1.5.8 3.7-.3 5.6-1.8 3-.7 6.7-1.3 7-.5.3-1 .5-1.7.5-.6-3-.4-6.4-1-4.7-.4 1-.4 3-.3 4.7-1 0-1.8-.5-1.8-1.5-.2-3-2.8-8.2-.5-12l2-.7zm28-1.3l1.3.4 1-.5 25-10.3 3.4 6.8C59.7 46.5 40 58.7 40 58.7S27.4 51 17 47.7c0-1.2-.4-2.3-1-3l1-3.6 21.5 9z" fill="#000" fill-rule="evenodd"/>
        </symbol>
        <symbol id="euro" viewBox="0 0 80 80">
            <path d="M54 55.6c-1.5 1-4.6 2.2-8.3 2.2a13 13 0 0 1-9.6-4c-1.8-2-3.2-5-3.7-9h19.4v-3.3h-20v-1.2l.3-3h19.7V34h-19c.6-3.7 2-6.7 4-8.7a12 12 0 0 1 9-3.8c3 0 6 1 7.7 2l1.4-4.6c-2-1-5-2.3-9-2.3-5.8 0-10.2 2-13.7 5.7A21.7 21.7 0 0 0 26.6 34H22v3.4h4v4h-4V45H26c.6 4.8 2.3 8.8 5 11.7 3.4 4 8.3 6 14 6 4.4 0 8-1.4 10-2.8l-1-4.4z" fill="#000" fill-rule="evenodd"/>
        </symbol>
        <symbol id="eye" viewBox="0 0 80 80">
            <g fill="#000" fill-rule="evenodd"><path d="M40.7 19.3c-20.2 0-37.4 20.4-37.4 20.4v.7S20.3 61 40.6 61C60.8 61 78 40.6 78 40.6v-.8S61 19.3 40.7 19.3zm0 33.6c-7 0-12.5-5.7-12.5-12.6 0-7 5.5-12.5 12.4-12.5a12.4 12.4 0 0 1 0 25z"/><path d="M40.6 34.6c-3.2 0-5.7 2.6-5.7 5.7 0 3.2 2.4 5.7 5.6 5.7 3 0 5.6-2.5 5.6-5.7 0-3-2.5-5.7-5.6-5.7"/></g>
        </symbol>
        <symbol id="facebook" viewBox="0 0  ">
            <path d="M51.7 33.3v-7.7c0-3.3.7-5 6-5h6.7V7.7H54.2c-12.7 0-17.8 8.4-17.8 17.8v7.7H26.2V46h10.2v38.2h15.3V46H63l1.4-12.7H51.7z"/>
        </symbol>
        <symbol id="factory" viewBox="0 0 80 80">
            <path d="M67.7 5L59 44.6 41.2 32 41 45.5 21.3 32.2l-.2 12.4L2 32.2V76h76V5H67.7zM19.4 68.7H9.8V55.5h9.6v13.2zm14.5 0h-9.6V55.5H34v13.2zm14.5 0H39V55.5h9.5v13.2zm14.6 0h-9.4V55.5H63v13.2z" fill="#000" fill-rule="evenodd"/>
        </symbol>
        <symbol id="fastmail" viewBox="0 0 80 80">
            <path d="M77.3 22.2a5 5 0 0 0-1.5-.2h-39c-.5 0-1 0-1.5.2-1 .3-1.5 1-1.7 2V56c.2.8 1 1.5 1.8 1.8l1.3.2h39c.6 0 1 0 1.5-.2 1-.3 1.6-1 1.8-1.8V24c-.2-.8-1-1.5-1.7-1.8zM36 55.2L50.6 41l5.7 4.6L62 41l14.5 14.3H36zm0-26.8l12.7 11L36 51.6V28.4zm28 10.8l12.5-10.8v23.3L64 39.2zm-7.7 3L36 24.8h40.6L56.3 42.3zm-46-2.2c0 1.2 1 2.2 2 2.2h16v-4.4h-16c-1 0-2 1-2 2.2zm9.3 11.5c0 1.2 1 2.2 2 2.2h6.8v-4.5h-6.7c-1.2 0-2 1-2 2.3zM1 28.5c0 1.2 1 2.2 2.2 2.2h25.2v-4.4H3.2c-1.2 0-2.2 1-2.2 2.2z" fill="#010101" fill-rule="evenodd"/>
        </symbol>
        <symbol id="fb-bg" viewBox="0 0 80 80">
            <path d="M68.4 1H10.6A9.6 9.6 0 0 0 1 10.6v57.8c0 5.3 4.3 9.6 9.6 9.6h57.8c5.3 0 9.6-4.3 9.6-9.6V10.6C78 5.3 73.7 1 68.4 1zM25.7 34.7H36L33.7 44H26v29.3H15.3V44h-5l.3-9.3h5v-1.3c0-3.5.5-5.6 1.3-7.4.8-1.7 2-3.7 4-4.8 2.4-1 4.4-1.6 7.8-1.6 3.5 0 5.7 1 9 2l-2 8.4c-2-1-3.4-2-5.3-2-1.8 0-3.2.5-4 1.3-1.4 1.4-.6 5.4-.6 5.4z" fill="#000" fill-rule="evenodd"/>
        </symbol>
        <symbol id="file-image" viewBox="0 0 80 80">
            <g fill="#000" fill-rule="evenodd"><path d="M2 77V.5h76.6V77H2zM73 6H7.6v65.4H73V6z"/><path d="M11 64.6h58.7s-3.5-37.2-9-35.6c-5.3 1.5-13.6 27-19.5 26.7-6-.2-12-6.7-17.8-7-6-.6-12.5 16-12.5 16zM33.2 21.8a6.2 6.2 0 1 1 0 12.5 6.2 6.2 0 0 1 0-12.5z"/></g>
        </symbol>
        <symbol id="file-pdf" viewBox="0 0 80 80">
            <g fill="#000" fill-rule="evenodd"><path d="M21.2 55.4h3v-11c.5.2 1 .2 1.4.2 2.4 0 5-1 6.3-3 1-1.4 1.5-3 1.5-5.5 0-2.2-.7-4.2-2-5.4-1.3-1.4-3.4-2-6-2-1.6 0-3 .2-4.3.6v26.2zm3-24c.4-.2 1-.3 1.7-.3 3.3 0 4.4 2.6 4.4 5.3 0 3.8-2 5.8-5 5.8h-1.2V31.3zM37 55.3c1 .2 2.2.3 3.4.3 3 0 5.6-1 7.3-2.8 1.7-2 3.2-5.2 3.2-11.3 0-5.6-1.6-9-3.7-10.8a9 9 0 0 0-6.2-2c-1.4 0-2.8 0-4 .5v26zm3-24l1.4-.2c4.3 0 6.4 3.8 6.4 10.5 0 9-3.3 11.6-6.6 11.6H40V31.3zM54.6 55.4h3v-12h6.7v-2.6h-6.7v-9.4h7.2v-2.6H54.6v26.6z"/><path d="M2.8 1v76.2h76v-63L67 1V1h-64zm4.8 5.2H62v13.2h12V72H7.6V6z"/></g>
        </symbol>
        <symbol id="file-txt" viewBox="0 0 80 80">
            <g fill="#000" fill-rule="evenodd"><path d="M2.6 1v75.2h75V14l-12-13h-63zm4.8 5.2H61v13h12v52H7.3V6z"/><path d="M62 29.3v3.5H14.8v-3.5H62M62 39.8v3.4H14.8v-3.4H62M62 50.2v3.5H14.8v-3.5H62"/></g>
        </symbol>
        <symbol id="firstaid" viewBox="0 0 80 81">
            <path d="M68.8 16.5H55c0-1.6 0-3.3-1-5-2-3.5-6.6-5.3-13.5-5.3-7 0-11.4 1.7-13.4 5a9 9 0 0 0-1 5.3H12C6.6 16.5 2 21 2 26.7V63c0 5.7 4.6 10.3 10.2 10.3h56.6C74.4 73.3 79 68.7 79 63V26.8c0-5.7-4.6-10.2-10.2-10.2zm-38-3c1.2-2 4.5-3 9.6-3 5.2 0 8.6 1 10 3.2.4.8.5 1.8.4 2.8H30.2c0-1 0-2 .5-3zm23 35.4h-10v9.7a3.5 3.5 0 0 1-6.8 0V49h-9.8a3.5 3.5 0 0 1 0-7H37v-9.8c0-2 1.6-3.5 3.5-3.5 2 0 3.4 1.6 3.4 3.5V42h9.8a3.5 3.5 0 0 1 0 7z" fill="#010101" fill-rule="evenodd"/>
        </symbol>
        <symbol id="follow-company-add" viewBox="0 0 80 80">
            <g fill="#000" fill-rule="evenodd"><path d="M45.7 56.5h8v-8H58V7H42.5v54h3v-4.5zM47 13.7h6.7v6.6H47v-6.6zM47 27h6.7v6.8H47V27zm0 13.5h6.7v7H47v-7zM33.4 16.5h-10v3.8h-6.2v-6H15v6h-4V61h26.8V20.2h-4.4v-3.8zm-18.2 24h7v7h-7v-7zm0-13.5h7v6.8h-7V27zm11.5 13.5h6.7v7h-6.7v-7zm0-13.5h6.7v6.8h-6.7V27z"/><path d="M63 51.4h-6.4v8h-8v6.4h8V74H63v-8.2h8v-6.4h-8v-8"/></g>
        </symbol>
        <symbol id="follow-company" viewBox="0 0 80 80">
            <path d="M48 74h19V7H48v67zm5.2-58.7h8.6v8.2h-8.6v-8.2zm0 16.5h8.6v8.6h-8.6v-8.6zm0 16.8h8.6v8.6h-8.6v-8.6zM39 24.5H28v4.2h-7V22h-2.5v6.7H14V74h30V28.7h-5v-4.2zM18.7 51.2h7.7V59h-7.7V51zm0-15h7.7v7.6h-7.7V36zm13 15H39V59h-7.4V51zm0-15H39v7.6h-7.4V36z"/>
        </symbol>
        <symbol id="funnel" viewBox="0 0 80 80">
            <path d="M72.7 13c-.3-.6-.8-1-1.4-1H7.5a1.5 1.5 0 0 0-1 2.6l25.4 25v26.7c0 .5 0 1 .6 1.3l.8.2c.2 0 .5 0 .7-.2l12.2-6.8c.4-.3.7-.8.7-1.3v-20l25.3-25c.5-.4.6-1 .4-1.6" fill="#000" fill-rule="evenodd"/>
        </symbol>
        <symbol id="gamingpad" viewBox="0 0 80 81">
            <path d="M23.8 31a6.4 6.4 0 1 0 0 12.7 6.4 6.4 0 0 0 0-12.8zm43.8-13.5c-1.6-3.5-6-2.3-9.4-1.4a42 42 0 0 1-17.8 5.3 42 42 0 0 1-18-5.3c-3.2-1-7.5-1.8-9 1.5C.6 44.8 2.8 60 4 63.5c1.5 4 7.5 7 11.5 5.4 2.2-1 8-4.3 15.4-13.5 0 0 3.3-4 9.4-4 6.2 0 9.7 4 9.7 4A42 42 0 0 0 65.5 69c4 1.4 10-1.5 11.5-5.5 1.2-3.4 3.4-18.7-9.4-46zm-43.8 30a10.3 10.3 0 1 1 0-20.5 10.3 10.3 0 0 1 0 20.5zm29-8.4c0 .8-.7 1.4-1.4 1.4h-3.2c-.7 0-1.3-.6-1.3-1.3v-3c0-.6.5-1 1.2-1h3.2c.7 0 1.3.4 1.3 1v3zm7.6 7.6c0 .7-.5 1.3-1.2 1.3H56c-.8 0-1.3-.7-1.3-1.4v-3c0-.7.5-1.2 1.2-1.2H59c.7 0 1.2.5 1.2 1.2v3zm0-15.3c0 .7-.5 1.3-1.2 1.3H56c-.8 0-1.3-.6-1.3-1.3v-3c0-.7.5-1.2 1.2-1.2H59c.7 0 1.2.6 1.2 1.3v3zm7.8 7.8c0 .8-.6 1.4-1.3 1.4h-3.3c-.7 0-1.3-.6-1.3-1.3v-3c0-.6.6-1 1.3-1H67c.6 0 1.2.4 1.2 1v3z" fill="#010101" fill-rule="evenodd"/>
        </symbol>
        <symbol id="geomarker-area" viewBox="0 0 80 80">
            <g fill="#1A1918" fill-rule="evenodd"><path d="M73.8 55c-3-3.7-8.2-5.6-12.8-7-2-.5-3.8-1-5.7-1.3l-2 4.6c2 .5 4 1 5.7 2 1.8.8 3.6 2 5 3.6.4.5 1.3 1.6.8 2.4a8 8 0 0 1-2.3 2.4c-4 3-9.5 4-14.4 4.5a58.4 58.4 0 0 1-24-2.5c-2-1-4.2-2-5.7-3.8-.4-.5-1-1-.8-1.7 0-.3.3-.5.4-.8A8 8 0 0 1 20 55c2.5-2 5.7-3 9-3.8-.8-1.5-1.5-3-2-4.6-5.2 1-10.4 2.3-14.8 5-2 1.2-4 3-5 5a6 6 0 0 0-.4 3.2c.2 1.3.3 2.7.7 4 1.4 4 5.8 7.4 9.5 9A63.8 63.8 0 0 0 44.8 77C53 77 62.3 75.5 69.5 71a13 13 0 0 0 5.5-8c0-.7.3-1.6.4-2.5.3-2-.4-3.7-1.6-5.2"/><path d="M41.5 11.2a7.3 7.3 0 1 1 0 14.6 7.3 7.3 0 0 1 0-14.6zm0 51.2S57.7 28.6 57.7 20c0-8.7-7-16-16-16h-.2-.3a16 16 0 0 0-16 16c0 8.6 16.3 42.4 16.3 42.4z"/></g>
        </symbol>
        <symbol id="geomarker" viewBox="0 0 80 80">
            <path d="M40.3 13H40h-.3C31 13 24 19.7 24 27.7c0 8 16 39.3 16 39.3s16-31.3 16-39.3c0-8-7-14.7-15.7-14.7zM40 33.2c-4 0-7.2-3-7.2-6.8 0-3.7 3.2-6.7 7.2-6.7s7.2 3 7.2 6.7-3.3 6.8-7.2 6.8z" fill="#010101" fill-rule="evenodd"/>
        </symbol>
        <symbol id="gift" viewBox="0 0 80 80">
            <path d="M75 21.6H55.6c2-1 4-2 5.6-3.4A11 11 0 0 0 65 9.6c0-2-.8-3.8-2-4.7-1.3-1.2-3.6-1.3-4.8-1.3-2 0-6 .4-10.4 3.2-3.2 2-5.6 5.4-7 8.4-2-4-5-9-9.5-12C25.6-.2 20.3-.3 16 3a9.4 9.4 0 0 0-3.3 6.6c0 2 .4 5 3.6 7.8 2 1.7 4.4 3 7.2 4.2H6a1 1 0 0 0-1 1V37c0 .6.5 1 1 1h2.7v35.3c0 .5.5 1 1 1h61.6c.5 0 1-.5 1-1V38H75c.5 0 1-.4 1-1V22.7c0-.6-.5-1-1-1zM36.4 68.2c0 .6-.5 1-1 1H14.7a1 1 0 0 1-1-1V41c0-.7.4-1 1-1h20.6c.6 0 1 .3 1 1V68zm0-36c0 .6-.5 1-1 1H11a1 1 0 0 1-1-1v-4.8c0-.6.6-1 1-1h24.4c.6 0 1 .4 1 1v4.8zM19.7 13.7c-1.3-1.3-2-2.6-2-4 0-1.3 1-2.5 1.5-3 1-.7 2.2-1 3.5-1 1.8 0 3.7.6 6 2 4.2 2.7 6.8 8.3 8.2 12-5.5-.8-13.5-2.6-17.3-6zm31-2.6C53.8 9 57 8.8 58 8.8A7 7 0 0 1 60 9c.2.7.3 3.2-2.2 5.5a31 31 0 0 1-13.5 5c1.3-2.8 3.3-6.5 6.3-8.4zM67 68.3c0 .6-.4 1-1 1H45.5a1 1 0 0 1-1-1V41c0-.7.5-1 1-1h20.7c.6 0 1 .3 1 1V68zm3.7-36c0 .6-.6 1-1.2 1H45.5a1 1 0 0 1-1-1v-4.8c0-.6.5-1 1-1h24.3c.6 0 1 .4 1 1v4.8z" fill="#010101" fill-rule="evenodd"/>
        </symbol>
        <symbol id="glasses" viewBox="0 0 80 81">
            <path d="M78 29.6c-1-1.2-18-1.8-18-1.8h-2.2a25 25 0 0 0-10 1.6s-3.6 1.3-8.3 1.3c-4.8 0-8.3-1.4-8.3-1.4a25 25 0 0 0-10-1.6H19s-17 .7-18 2c-1.3 1-.8 4.2 0 5 .3.4 2.8 1 4.6 1a15 15 0 0 0-.4 3.7c0 10 1.6 15.4 16 15.4 9.3 0 16-8.7 16-14.5v-3a7 7 0 0 1 5 0c-.4 1-.5 2-.5 3 0 5.7 6.7 14.4 16 14.4 14.5 0 16-5.5 16-15.4 0-1.3 0-2.5-.3-3.6a15 15 0 0 0 4.7-1c.8-1 1.3-4 0-5.2zm-56.8 21c-5.4 0-9-1-10.3-2.6-1.2-1.4-1.7-4-1.7-8.6 0-4 1-7.4 12-7.4 5 0 8.3.8 10 2.3.8.8 1.8 2.2 1.8 6 0 3.6-4.8 10.2-11.8 10.2zm47-2.6c-1.6 1.7-5 2.5-10.4 2.5-7 0-12-6.6-12-10.2 0-3.8 1-5.2 2-6 1.6-1.5 5-2.3 10-2.3 11 0 12 3.3 12 7.4 0 4.7-.6 7.2-1.7 8.6z" fill="#010101" fill-rule="evenodd"/>
        </symbol>
        <symbol id="globe-2" viewBox="0 0 80 81">
            <path d="M40 2.7a38 38 0 1 0 0 76 38 38 0 0 0 0-76zm0 70.6c-9.5 0-18-4.2-24-10.7 0-.7 1.8-5.4 3-7.6 1-2.3 1.4-2.6 4-5 2.6-2.3-5.2-3.3-7-5.2-1.8-1.8-2.7-1.8-4.8-3.4-1.6-1.3-2.5 4.2-3 7a32.4 32.4 0 0 1 5-26.3c-1 3.3-2 8 2 6.5 4.6-1.5 5-3.3 5-3.3l2.6-4.6s.4 6.4 1 7.3c.4.8 2.5 3.4 3.3-.2 1.5-6.7 1.7-8.6 4.2-8.6s7.6-2 8 4c.6 6-.4 2.5-3.7 4-3.2 1.6-4 7-1 7.7 3 .6 9.8 3.3 9.8 3.3l3.4 3.8 1 4 .7 5v4.2s0 8.3 3 6.3c3-2 11.3-14.7 9.6-19.5-1.7-5-1.8-5.4 1.3-7 3-1.8 5.3-4 5.2-6.2V25A32.6 32.6 0 0 1 40 73.2z" fill="#010101" fill-rule="evenodd"/>
        </symbol>
        <symbol id="globe" viewBox="0 0 80 80">
            <path d="M39.5 78a37.5 37.5 0 1 1 0-75 37.5 37.5 0 0 1 0 75zm24.2-19.5c0-.2.2-.4.3-.5 0-.5 0-1.3.2-1.3l.3-1.5h.2s0-.4.2-.5c0-.3.6-.4.2-.7-.2 0-.3-.8-.3-1-.3 0 0 .8-.5.8 0-.6-.7.3 0 .3 0 .6-.8.4-1 .3-.2.3-.3.4 0 .5 0 .4-.2 0-.4 0 0 .5-.5 3.8.7 3.7zm1-5.4l-.2.4c.3 0 .2 0 .2-.3zm-24.3-3.8c0 .3-.3 0-.5 0-.5 0-.5.4-1 .4 0-.3.2-1-.2-1 0 .5-.5.2-.4 0-.2 0-.4-.4-.7-.4 0 .5-.8 0-.6 0 0 0 0-.7.2-.7 0-.3 0-.8-.3-1-.3-.3 0-.2-.5-.6 0-.2 0 0-.2-.3 0 0-.4-.4-.5 0l-.8-.2c-.5-.2 0-.2-.4-.4 0 0-.5 0-.5-.3v-.3h-.2s0-.3-.3-.3H32c-.6 0-.5-.8-1-1 0 .3-.4.5-.6.5l-.2-.2H30c-.3.2-.4.6-.6.4h-.2c-.4 0 .2 1-.8 1 0-.2 0-.6-.5-.6 0 .5-.8.5-1 .4 0-.3-.2-.5-.5-.7l-.2-1c-.3 0 .2-1-.4-1-.4 0-.8.2-1.2 0 0-.3-.2-.3 0-.7v-1c.3 0 .3-.3.5-.3.3-.2 0-.6 0-.2l-.6.2s-.5.5-.5 0c-.2.2-.6.7-.2.8 0 .2-.4.4-.4.4-.5 0-.3 0-.4-.4-.3 0-.7-.7-1-.7 0-.4-.4-.7-.4-1v-1.6c0-.8.6-1.4 1.3-1.5.6 0 .5.2 1 .3.2 0 .4 0 .6-.2l-.2-.3c.3 0 1 0 1.2.3.3 0 .7-.3 1 0l.3 1c-.2 0 0 .6.2.6.4 0 .3-.3.2-.7 0-.4 0-1.2-.3-1.4 0-1 .7-.8 1-1.4.5 0 .6-1 1-1 0-.2 0-.8.2-.8 0-.4.2-.4.4-.7l.6-.4c.3-.2.5-.8.6-1l.5-.5 1-.2v.4H32c0 .2-.4.2.4 0h.4c0-.4.4-.2.5-.4-.3 0-.6 0-.8-.4-.2-.4-.6-.8 0-.8v-.2c-.3 0-.4.4-.8.4-.5 0-.8.6-1.3.6 0-.5 1-1.5 1.4-1.6.8-.3 2.3.5 2.5-.6.2 0 1 .3 1 0 0 0-.2-.4 0-.4 0-.2-.3-.5-.5-.5 0-.5-.3 0-.4 0 0-.2 0-.2-.3-.3 0-.3-.4-.7-.6-1-.2 0-.6-1.2-.8-1 0 .2-.2.6-.5.6 0 .2-.4 0-.5 0V24c-.2 0-1-.7-1-1-.6.3 0 0-.7-.2-.2.5-.8 0-1.2 0H28c0 .4.4 1 0 1.2 0 .3.3 0 .4.3.3.3.2.8 0 1 .6.3-.4.8-.4.5-.3 0-.4.4 0 .7 0 .2-.2.5 0 .5 0 .3-.4.4-.7.2 0-.2-.2-.8 0-.8-.2-.2-.8-1.2-.8-.6-.4 0-.8 0-.8-.4 0 0-.3 0-.4-.2-.6 0-1-.2-1.6-.3 0-.4-.6-1-1-1.2 0-.7 0-1.4.7-1.5l.8-.2c.2-.3.6.3.7-.3 0-.4.5-.6.8-.5 0 .5-.2 1-.6 1 .3.2 1 0 1.4 0h.7c-.3-.3-1.7-.6-1-1 0-.2.5-.2.6-.5v-1H26v-.2c0 .3-.4 0-.6 0 0 .2.2.4 0 .4 0 .4 0 .8-.6 1 0-.4 0-1-.5-1 0 .8-1-.5-1-.7 0-.3-.3-.4-.5-.5-.2.4-.4 0-.7.5l-.2.6s-.8-.3-.8 0c.2 0 .4 0 .3.4.5 0-.2.3-.2.3h-.8a7 7 0 0 1-1.2-.2c-.3 0-.2-.3-.4-.3-.5-.7.6-.3.6-.2.3 0 .8.4.7-.3h.4c0-.3-.5-.2-.8 0 0-.3-.4-.8-.4-.8V18l-.6.2c-2.8 2.6-5 5.8-6.8 9.3 1 .7 1 1.8 1 2.7-.2.6 0 1.2 0 1.7.3.2.7 1 .7 1.2l.5 1c.7 0 1 .2 1 .8l.5 1c0 .3.4 1.2.7 1.3 0 .8 2 2 .8.2l-.7-1c0-.4-.7-.8-.6-1 0-.5 1 .5 1 .7l.3.7s.8.4.8.7c.6 0 .8 1.3 1 1.7 0 .3 0 1 .5 1 .2.5 1 .3 1.2.7.5 0 1 .5 1.6.5.5 0 .6.6 1 .6 0 .2.4 0 .4.3.4 0 1.6.6 1.4 1 .2.2.8.8.7 1 .2.7 1 .7 1.5 1 .3-1.2.8-.2.8.3v1.2c.4 0 0 .7-.3.2l-.3.4c-.2 0-.8 1.5-.2 1.7 0 .7-.7 1.2 0 1.5l1 1.7c0 .3 0 .7.2 1 0 .4.5 1.6 1.2 1.6 0 0 .7.7.5.7.3 1.4 0 2.2 0 3.6-.5 0 0 3-.6 3.3-.2.4-.6.8-.4 1v1.4c-.2 0-.3.7-.3.8-.3 0-.3 2.4-.3 3.3l2.4.7-.2-.4c-.3 0 0-.8.4-.8 0-.4.3-.4.5-.7.4 0 0-.4 0-.2 0 0 0 .2-.2.2v-.2-.8c.2 0 .3-.4.4-.5.3-.3.6-.3.6-.8 0 0 0-.5-.2-.5.2-.2.6.2.6-.3V64c.6-.2.5-.3 1-.3.2-.2.7-.3 1-.3v-.8c0-.3.5-.4.5-.5.4-.2.5-.5.5-1 0-.2.5-.6.8-.6.4 0 0-.2.4-.2l.2-.4c.2-.2 0-1 .2-1.4l.4-.5c.3 0 .4-.3.7-.3 0-.3.8-.6 1-.8.2-.7.6-.8.6-1.3l.3-1.3v-1l.7-1c.6-.5.5-2 0-2.5-.5-.4-.7-.6-1.3-.8zm-6.5-20c-.4.2-.5 0-.5.3.2 0 .4 0 .4-.3zM32 40.6H32c0 .2 0 0 .3 0zm-2.5-.5c0 .3.2.4.2.5h-.7c0 .2.8.2 1 0h1s-.4-.4-.6-.4v.3l-1-.2zm.6 3h.2l-.2-.2v.2zM29 40c.6-.2 0-.5 0-.7-.6 0-.6-.4-1.3-.5 0 .3-.3.2-.6 0 .3.4.7.6 1 .6.2.3.6.5 1 .5zm-.6.8c0-.2 0-.3-.4-.3 0 .4.2.3.4.3zm0 0h.3c0-.5-.2-.3-.3 0zm-1.8-2c0 .2-.3.3-.3 0H26c0 .5.6.4.6 0zm18-17.3s0 .3-.4.2c0-.7-.2-.3-.8-.2l-.8.2v-.4c-.2 0 0 0 0 0l-.7.2c.4 0-.2.4-.2.5l1 .2h1c.3 0 .5 0 .8-.3.3-.3 0-.3 0-.5zM46 36.2l-.7.8c-.3.5-.4 0-.6.5 0 .3-.2.5-.3.7A3 3 0 0 0 44 40c0 .2-.3.5-.2.7l.2 1c-.2 0-.3.7 0 .8a4 4 0 0 0 1 2c0 .4.8 1.2 1 1.2.3.3 1.7.7 1.7.3.6 0 2.8-.4 3 .3H52c0 .5 0 1.6-.3 2 0 .4.2 1 .6 1.2l.4.6c0 .7.3 1.2.2 2-.2 1-.5 1.4-.5 2l.3 1.5c0 .6.5 1.2.5 2l.2.7.8 2c.2 0 .2.7.3.7l.2 1c.2.3 1 0 1.4 0l1.6-.4.8-1c0-.4 1-1.3 1.3-1.6l.2-1 .2-2c.2 0 .3-.7.6-.7 0-.2.4-.3.5-.4 0-.5.4-.8.4-1.4l-.3-1.8c-.4 0 0-2 0-2.2-.4 0 .8-1.3.8-1.2 0-.4.7-1 1-1 0-.4.8-1 .8-1l.5-.7s0-.5.2-.5c0-.6.5-1 .5-1.6l-1.5.2h-.5c-.5 0 0 0-.2-.2-.4 0-1-1.4-1-1.8-.2 0-.4-.6-.3-.6 0-.3-.6-.6-.4-1-.5-.2-1-1-1-1.5-.3-.2-.5-.8-.5-1-.2 0-.6-1-.5-1.3-.3 0-.4-.5-.7-.5.2-.5-1.8-.5-2-.6 0-.3-.3-.5-.6-.5 0 .4-1.2.5-1.5.4-.3 0-1 0-1-.4h-.6c0-.3-.5-1.8-1-2v.2c-.2 0-2-.3-2 0 0 0-1 .3-1.2.6 0 0-1 .4-1 0l-.4.4c-.2 0-.4.4-.6.5-.4 0 0-.3-.5.3l-.3 1v.2zm7.8-3.5c-.3 0 0 .3-.5 0H53c.3.2.8.8.8 0zm-2-1.5c0-.2.4-.4 0-.5 0 0 0 .2-.2 0 0 .3 0 .4.2.5zm-.3 1c.6 0 .5-.8.3-.8 0 .3 0 .4 0 0-.4 0-.3.5-.3.7zM47 25.7c-.2 0-.3-.3-.4 0 0 0 0 .2.3.2-.2 0-1.2.3-.7.4 0 .3-.3.4 0 .7.7 0 1-.4 1-1 .3-.5 0-.2-.3-.2zm2.7 1c0 .2 0 0-.3 0 0-.4 0-.8-.4-.8 0-.3 0-.4-.3-.6-.4-.3 0-.3 0-.7-.2 0-.2.3-.6.3 0 0 .2-.3 0-.3.2 0 .5-.3 0-.3 0 .6-.6 0-.5.6 0 .4.2.3.2.7.5 0 .6.2.6.7.6.2-.3 0-.4 0 0 .4-.5 1 0 .7.3 0 .4 0 .4.4.4 0 1 0 1.3-.4.2 0 .2-.2 0-.3zm-2 .8c0 .2.3 0 .3 0h-.3zm15-6.5c-.3.5-.7.2-1 .5 0 0 0 .5.2.5-.2.4-.6.3-.6 0-.3 0-.5.3-1 .3.2-.3-.3-1-.6-1V21H62c0-.5-1.2-1-1.6-1 0 .2-.7 0-1 0 0-.3-1.6-.3-2-.3 0-.3-2.6.4-2.8.4-.6.2-.8.5-1.2 1 0 0-1.4 1-.7 1 0 .8-2.2.7-2.2 1.2 0 0-.6 0-.3.4l.4.6 1.4.2s.3 0 .4-.2c0 .3.3 1 .5 1 0 .2 0 .7-.5.4 0 0 0-.5-.2-.6 0-.4-.4.2-.8 0 0 .4 0 1 .3 1.2-.2.5-.7.2-1 .5-.2 0-.5.6-.5.2-.3 0 0 .7-.6.4v.5c.3 0 0 .2-.2.2 0 .4-.5 0-.6 0 .2.6-.7.3-1 .2l.4.3c0 .3 1 1 .4 1.5 0 .2 0 .2.2.2 0 .4-.5.3-.8.3 0-.3 0-.4-.3-.4 0 .4-1 .2-1.3.3v-.2c-.2.2-.4 1.8-.3 1.8 0 .6.4 1 1 1h1.3c0-.6.5-.6.5-1l.7-1.8s1 .4 1.3 0l.5-.3c.3.2.4 1 .6 1 .3.3 1 .2 1.2.6.3 0 .3.8.3 1 .3 0 .3-.4.3-.7-.2-.6.3 0 .5-.2-.2 0-.2-.4-.6-.3V31c-.7.2-.7-.8-1.2-.7 0-.2-.3-.3-.2-.6.3-.4 1 1 1.5 1 0 0 .6 0 .6.3.2 0 0 .5 0 .8.3 0 .2.2.3.4.4 0 .2 1 1 1 0-.2.5-.7 0-.7.2-.2-.3-1 .3-1 .3 0 .6 0 .7.4.2.4 0 .7.5 1 .2.6 1.2 0 1.3.3.2 0 .8.2.8 0h.7l-.2 1c0 .2-.3.4-.2.7-.2 0 0 .3 0 .3 0 .5-.4.4-.8.3 0 .4.7 1 1 1.3 0 .2.3.7.6 1 0 0 .2.7.4.8 0 .3 1.2 2.5 1 2.5v.5c.5 0 .3 1 1.3 1l1-.4c0-.3 1-.5 1.3-.5 0-.4 1.4-1 1.4-1.2 0 0 .3-.4.3-.7 0-.2.2-.2.2-.5.4-.2.5-1 0-1 0 .5-.4.2-.3 0l-.2-.4c-.2 0 0-.2-.2-.4-.2.6-.7 1-1.2 1-.2-.5.3 0 0-.5-.2 0-.2-.3-.2-.5-.2.5 0 .6-.5.6 0 0 .4-.2 0-.5V37c-.2 0-.6-.7-.5-1 .3-.5 1.2 1 1 1v.2c1-.3 2 .6 3 .6l1 .2c-.5-6.4-3-12.3-7-17zm3 10c0 .4.3 0 .4 0 0 .3.5.5.5.8H66v.6c.4 0 0 .7.4.7 0 .6-1 .5-1 0-1-.2-.5-.8-.5-1.2 0-.6-.7-.8-.7-1.3-.4 0 0-1 0-1 .4 0 .6-.4 1-.5.7-.2.4.3.7.6.3 0-.3.2-.3.2h-.5c0 .2 0 .7.2.7.2.3.3 0 .3.5zm-4 .7c-.6.2-.7-.4-1-.4 0 .6-.3 0-.4 0l-2.2.2c0-.3.2-.3 0-.4 0-.7.4-1 .7-1.8.5 0 .7 0 .7.6.4 0 0 .4.6.2 0-.2.3-.2.5-.2.4 0 .5.2.7.2.3.5 1 .4 1 1.3.6 0-.5.5-.5.4z" fill="#000" fill-rule="evenodd"/>
        </symbol>
        <symbol id="googleplus" viewBox="0 0 80 81">
            <g fill="#000" fill-rule="evenodd"><path d="M37.6 44.5l-3-2.3c-1-.8-1.8-1.5-1.8-2.5 0-1.2 1-2 2-3 3.4-2.6 7.6-6 7.6-12.7 0-4.5-2-7.5-4-9.7h2.2L51 8.7H28c-4.3 0-10.6.5-16 4.8-3.8 3-6 7.6-6 12 0 3.6 1.5 7.2 4 9.7 3.7 3.7 8.3 4.4 11.5 4.4h.7l-.2 1.8a8 8 0 0 0 1.4 4.4c-4 .3-9.8 1-14.4 3.8C2.5 53.4 2 59 2 60.6c0 6.6 6 13 19.6 13 15.5 0 23.7-8.3 23.7-16.7 0-6.4-4-9.5-7.7-12.5zm-21.2-23c0-2.3.5-4 1.5-5.2 1-1.4 3-2.2 5-2.2 3.2 0 5.4 2.6 6.7 4.7 1.6 2.7 2.5 6.2 2.5 9 0 1 0 3.5-1.7 5.2-1.2 1-3.2 1.8-4.8 1.8-3.5 0-5.7-2.5-7-4.6-1.7-3-2.3-6.4-2.3-8.7zM37 60c0 4.8-4.4 7.7-11.3 7.7-8 0-13.6-3.5-13.6-8.7 0-4.4 3.8-6.3 6.5-7.2 3.2-1 7.6-1.3 8.5-1.3h1.5c6.2 4.3 8.4 6.2 8.4 9.6z"/><path d="M64.8 22V8.6H59V22H45.4v5.6H59v13.7h5.8V27.6H78V22H64.8z"/></g>
        </symbol>
        <symbol id="grid" viewBox="0 0 80 81">
            <g fill="#1E1E1E" fill-rule="evenodd"><path d="M25.4 23.5H13.6a.5.5 0 0 1-.5-.5V11.5c0-.3.4-.5.6-.5h11.8c.2 0 .5.2.5.5V23c0 .3-.4.5-.6.5M47 23.5H35a.5.5 0 0 1-.5-.5V11.5c0-.3.2-.5.5-.5H47c.2 0 .4.2.4.5V23c0 .3-.2.5-.5.5M68 23.5H56a.5.5 0 0 1-.5-.5V11.5c0-.3.2-.5.5-.5H68c.2 0 .4.2.4.5V23c0 .3-.2.5-.5.5M25.4 46.7H13.6a.5.5 0 0 1-.5-.5V34.7c0-.3.4-.5.6-.5h11.8c.2 0 .5.2.5.5v11.5c0 .3-.4.5-.6.5M47 46.7H35a.5.5 0 0 1-.5-.5V34.7c0-.3.2-.5.5-.5H47c.2 0 .4.2.4.5v11.5c0 .3-.2.5-.5.5M68 46.7H56a.5.5 0 0 1-.5-.5V34.7c0-.3.2-.5.5-.5H68c.2 0 .4.2.4.5v11.5c0 .3-.2.5-.5.5M25.4 70.6H13.6a.5.5 0 0 1-.5-.5V58.7c0-.3.4-.5.6-.5h11.8c.2 0 .5.3.5.6V70c0 .4-.4.6-.6.6M47 70.6H35a.5.5 0 0 1-.5-.5V58.7c0-.3.2-.5.5-.5H47c.2 0 .4.3.4.6V70c0 .4-.2.6-.5.6M68 70.6H56a.5.5 0 0 1-.5-.5V58.7c0-.3.2-.5.5-.5H68c.2 0 .4.3.4.6V70c0 .4-.2.6-.5.6"/></g>
        </symbol>
        <symbol id="heart-plus" viewBox="0 0 80 81">
            <path d="M61.7 30.3c.8 0 1.7 0 2.5.2-1-10-9.2-15.3-16.8-15.3-5.6 0-10.8 2.6-14.7 7.4-3.8-4.8-9-7.4-14.6-7.4A17 17 0 0 0 1.3 33c0 11.7 10.4 20 18 26 3 2.2 5 4 6.8 5.2 2.7 2 4 3 5.5 4.6.4.3.8.5 1.2.5.5 0 1-.2 1.2-.5 2-2 3.7-3.3 8.4-7a21.5 21.5 0 0 1 19.3-31.5zm2.5 4.6a17.5 17.5 0 0 0-2.5-.3 17.3 17.3 0 0 0-17.2 19v.4c0 .6.2 1 .3 1.7l.5 1.7v.3c.3.4.4 1 .6 1.3a17.2 17.2 0 1 0 18.2-24zm5.3 19h-5.8v5.7a2 2 0 0 1-4 0V54H54a2 2 0 1 1 0-4h5.7V44c0-1 1-2 2-2h.3c1 0 1.7 1 1.7 2V50h5.8a2 2 0 0 1 0 4z" fill="#010101" fill-rule="evenodd"/>
        </symbol>
        <symbol id="home" viewBox="0 0 81 80">
            <g fill="#000" fill-rule="evenodd"><path d="M68.8 73.2H48.5a.6.6 0 0 1-.6-.5v-19c0-1-.7-1.6-1.5-1.6h-12c-1 0-1.6.6-1.6 1.4v19.3c0 .3-.4.5-.7.5h-20a.6.6 0 0 1-.7-.5V47c0-.4.2-.8.5-1l27.5-24.5c.6-.5 1.4-.5 2 0L69 46.2c.3 0 .3.2.3.4v26c0 .4-.2.6-.5.6"/><path d="M73.4 45.3L41.4 17c-.5-.5-1.3-.5-2 0L7.8 45.2c-.3.2-.6.2-1 0L3 40.7a.6.6 0 0 1 0-.8L39.5 7.7c.6-.5 1.4-.5 2 0L78 40c.3.3.3.7 0 1L74.4 45c-.3.3-.6.3-1 0M68.4 27.5l-8-6.6c-.2-.2-.3-.3-.3-.5v-6c0-.4.4-.7.7-.7h8c.4 0 .6.3.6.6V27c0 .5-.5.8-1 .5"/></g>
        </symbol>
        <symbol id="hourglass" viewBox="0 0 80 80">
            <path d="M32 51.8V67h15V52c-2-1-4.7-1.6-7.5-1.6s-5.4.6-7.5 1.6zm12.5-23c2.2-.7 2.5-1.8 2.5-3V22c-2 1-4.7 1.6-7.5 1.6S34 23 32 22v4c0 1 .3 2 2.4 3h.3c2.3 1 3.8 2 4.8 3.3a10 10 0 0 1 4.4-3c0-.2.3-.3.5-.4zm2.7 7.6c.2 0 .3 0 .5-.2C52.2 34.4 55 30.6 55 26V3.4C55 2 53.6 1 52.3 1H26.6C25.2 1 24 2 24 3.5V26a10.8 10.8 0 0 0 7.7 10.4c1 .3 1.2.5 1.4.6v2s-.2.3-.6.4C27.2 41 24 45 24 50v22.5c0 1.4 1.2 2.5 2.6 2.5h25.8c1.3 0 2.5-1 2.5-2.5V50c0-5-3.4-9-9-10.7 0 0 0-.2-.2-.2v-1-1l1.4-.6zM41 39c0 1.7.4 3.6 3.2 4.8 0 0 .2 0 .3.2 3.5 1 5.4 3 5.4 6v20H29V50c0-2.8 1.8-5 5-6 3.3-1.2 4-3 4-5v-1c0-3-.6-4.8-4.4-6.2h-.2c-3-1.2-4.3-3-4.3-6V6h21v20c0 2.7-1.6 4.6-4.5 5.7 0 0-.2 0-.3.2-3.7 1.3-4.4 3-4.4 6v1z" fill="#010101" fill-rule="evenodd"/>
        </symbol>
        <symbol id="house" viewBox="0 0 80 80">
            <path d="M24.8 52.3h8.4V44h-8.4v8.3zm54.5-20L44 2.7a4.4 4.4 0 0 0-5.7 0L3 32.4a4.3 4.3 0 0 0-.6 6c1.5 2 4.3 2.2 6 .6l.7-.5V73c0 1.4 1.3 2.6 2.8 2.6h58.6c1.5 0 2.7-1.2 2.7-2.7V38.4l.7.5a4.3 4.3 0 0 0 6-.5 4.3 4.3 0 0 0-.4-6zm-11.6 38H57.4V43.8h-15V70h-28V34l26.7-22.5L67.8 34v36.2z" fill="#010101" fill-rule="evenodd"/>
        </symbol>
        <symbol id="info-bg" viewBox="0 0 80 80">
            <path d="M39.6 1a38.6 38.6 0 1 0 0 77.2 38.6 38.6 0 0 0 0-77.2zm1 11.4a8.5 8.5 0 1 1 0 17 8.5 8.5 0 0 1 0-17zm11.7 51c-.7.8-1.4 1-2 1H31c-.5 0-1.2-.2-1.8-1a3 3 0 0 1-.8-2c0-1 .2-1.7.7-2.3.6-.7 1.3-.8 1.8-.8H33V42H31c-.5 0-1.2-.3-1.8-1a3 3 0 0 1-.8-2.2c0-1 .2-1.6.7-2.2.6-.8 1.3-1 1.8-1h16.4c.6 0 1 .5 1 1v21.6h2.2c.5 0 1.2 0 2 1 .4.5.7 1.2.7 2a3 3 0 0 1-.7 2.3z" fill="#000" fill-rule="evenodd"/>
        </symbol>
        <symbol id="instagram" viewBox="0 0 80 80">
            <g fill="#000" fill-rule="evenodd"><path d="M39.5 57.4a17.8 17.8 0 0 1-16.6-24H1v26.4C1 70.4 9.7 79 20.3 79h38.4C69.3 79 78 70.4 78 59.8V33.3H56a17.7 17.7 0 0 1-16.5 24z"/><path d="M39.5 29a10.7 10.7 0 1 1 0 21.3 10.7 10.7 0 0 1 0-21.4M58.7 2H21.3v20.2H17V2.4c-1.4.2-2.8.6-4 1.2v18.6H8.6V6C4 9.5 1 15 1 21.3V27h26a17.7 17.7 0 0 1 25 0h26v-5.7C78 10.7 69.2 2 58.6 2zm8.6 18.3c0 1.2-1 2.2-2.2 2.2h-6.4c-1 0-2-1-2-2.2v-6.5c0-1.2 1-2 2-2H65c1.3 0 2.3.8 2.3 2v6.5z"/></g>
        </symbol>
        <symbol id="instantjobs" viewBox="0 0  ">
            <path d="M30 .5A29.4 29.4 0 0 0 11.7 53C11.5 52.7.5 59.4.5 59.4H30a29.5 29.5 0 0 0 0-59zm-3.3 43c-2.5-.5-4.2-2.7-3.8-4.7l9 1.6c-.5 2-2.8 3.5-5.3 3zM14 36l4.8-5.5 1.4-8c1-5.5 5.6-9.2 11-8.3l1.3.2c5.4 1 8.5 6 7.5 11.6l-1.4 8 2.5 6.7L14 36z"/>
        </symbol>
        <symbol id="iphone" viewBox="0 0 80 81">
            <path d="M58.3 3H22.7c-3 0-5.7 2.5-5.7 5.6v65.2c0 3 2.6 5.6 5.7 5.6h35.6c3 0 5.6-2.5 5.6-5.6V8.6c0-3-2.6-5.7-5.7-5.7zM40.5 75.5c-2 0-3.6-1.6-3.6-3.6s1.5-3.6 3.5-3.6S44 70 44 72s-1.5 3.6-3.5 3.6zm19.2-11H21.3V17.8h38.4v46.8z" fill="#010101" fill-rule="evenodd"/>
        </symbol>
        <symbol id="keynote" viewBox="0 0 80 81">
            <g fill="#000" fill-rule="evenodd"><path d="M76 2.7H3a2 2 0 0 0-2 2v48c0 1 1 2 2 2h73c1 0 2-1 2-2v-48c0-1-1-2-2-2zm-2.3 47.8H5.3V7h68.4v43.5z"/><path d="M25.8 42.7h1.5a13 13 0 0 0 12-17.6 1 1 0 0 0-1-.5c-.2 0-.4 0-9.8 4.2l1.2-10.5c0-.5-.3-1-.8-1a12.8 12.8 0 1 0-3.2 25.5z"/><path d="M33 23h.3l9-4s.2 0 .2-.2v-.5a10.3 10.3 0 0 0-8.2-6.2c-.3 0-.6.3-.6.6l-1.2 9.7c0 .2 0 .4.2.5h.4zM50.6 40.8h14.2a1.6 1.6 0 0 0 0-3.2H50.6a1.6 1.6 0 0 0 0 3.2zM50.6 31h14.2a1.6 1.6 0 0 0 0-3.4H50.6a1.6 1.6 0 0 0 0 3.3zM50.6 21h14.2a1.6 1.6 0 0 0 0-3.3H50.6a1.6 1.6 0 0 0 0 3.3zM69.8 76.5L47.4 64.2v-5.8H33v5.2l-22.6 13a1.6 1.6 0 0 0 1.4 2.8L40.2 67l28.3 12.4.7.2a1.6 1.6 0 0 0 .6-3z"/></g>
        </symbol>
        <symbol id="left" viewBox="0 0 80 81">
            <path d="M58.2 1.5L21 40l37.2 38.3V1.5z" fill="#000" fill-rule="evenodd"/>
        </symbol>
        <symbol id="link-external" viewBox="0 0 80 81">
            <g fill="#000" fill-rule="evenodd"><path d="M53.8 67.6c0 1.3-1 2.4-2.4 2.4H14c-1.3 0-2.4-1-2.4-2.4V30c0-1.3 1-2.4 2.4-2.4h19.7l8-8H14C8.3 19.5 3.5 24 3.5 30v37.6c0 5.8 4.8 10.6 10.5 10.6h37.4c5.8 0 10.5-4.8 10.5-10.6v-28L53.7 48v19.8z"/><path d="M40.3 6l12 12.2-22 22 11 11 22-22 11.8 12 3-37.8L40.2 6z"/></g>
        </symbol>
        <symbol id="linkedin" viewBox="0 0  ">
            <path fill="#010202" d="M13.5 57H2V20.4h11.5V57zm-6-41.3c-4.3 0-7-2.8-7-6.4C.5 5.7 3.3 3 7.5 3s7 2.6 7 6.3c0 3.6-2.7 6.4-7 6.4zm52 41.4h-13V38c0-5-2-8.4-6.5-8.4-3.4 0-5.3 2.3-6.2 4.5-.3 1-.3 2-.3 3v20h-13s.2-33.7 0-36.8h13V26c.7-2.5 4.8-6 11.4-6 8 0 14.5 5.2 14.5 16.6V57z"/>
        </symbol>
        <symbol id="location" viewBox="0 0 80 80">
            <path d="M40.7 8C30.4 8 22 17 22 28.2c0 20.2 18.7 50.5 18.7 50.5s18.8-30.3 18.8-50.5C59.5 17 51 8 40.7 8zm0 30.3c-5 0-9.3-4.5-9.3-10 0-5.7 4.2-10.2 9.3-10.2C46 18 50 22.7 50 28.3s-4 10-9.3 10z" fill="#1A1918" fill-rule="evenodd"/>
        </symbol>
        <symbol id="lock" viewBox="0 0 80 80">
            <path d="M61 35.8v-12A20 20 0 0 0 41.3 4h-.6-.6a20 20 0 0 0-19.8 19.8v12H13v41h54v-41h-6zM30.4 24.4c0-5.4 4.2-9.6 9.6-9.6h.6c5.4 0 9.6 4.2 9.6 9.6v12H29.8v-12h.6z" fill="#000" fill-rule="evenodd"/>
        </symbol>
        <symbol id="macbook" viewBox="0 0 80 80">
            <path d="M71.5 13.7c0-2.4-1.2-3.6-3.7-3.6H13c-2.3 0-3.5 1.3-3.5 3.7V51h62V13.7zm-5 32.3h-52V15h52v31zm5 8.3h-62l-8.3 9h78.6l-8.3-9zm-40.2 6.3l3.3-3.3h11.7l3.4 3.3H31.3zM3.7 70h73.6c2.4 0 2.5-3.5 2.5-3.5H1.2s0 3.4 2.5 3.4z" fill="#010101" fill-rule="evenodd"/>
        </symbol>
        <symbol id="magnifier-bg" viewBox="0 0 80 81">
            <path d="M55 55.4l1.3-1.2h1l10.6 14A38.4 38.4 0 0 0 40.4 2.6a38.5 38.5 0 1 0 19 72A5079 5079 0 0 1 49 61.3v-.6l1.2-1.3-2-2.4a21 21 0 1 1 5.4-4l1.5 2.4zm-30-17a13.6 13.6 0 1 0 27 0 13.6 13.6 0 0 0-27 0z" fill="#010101" fill-rule="evenodd"/>
        </symbol>
        <symbol id="magnifier" viewBox="0 0 80 80">
            <path d="M76.4 67.2L52.7 43.5a28 28 0 1 0-43.5 5c8.3 9.3 23.5 10.2 34 4.2L67 76.5c3.5 3.4 6 1.2 8.2-1 2.2-2 4.6-5 1.2-8.3zM41.8 41.6a18.3 18.3 0 1 1-26-25.8 18.3 18.3 0 0 1 26 25.8z" fill="#000" fill-rule="evenodd"/>
        </symbol>
        <symbol id="mail-open" viewBox="0 0 80 81">
            <g fill="none" fill-rule="evenodd"><path d="M4.7 37.2L7 34.8l35.7 29.6-1.8 2.3L6 38" fill="#1E1E1E"/><path d="M40.7 66.7l-1.8-2L72 35l1 3.2-32.3 28.5" fill="#1E1E1E"/><path d="M75 34.2v4L40.7 6.8l-36 31.3v-4l36-31.4 34 31.2" fill="#1E1E1E"/><path d="M72 34.2h3v44h-3V34z" fill="#1E1E1E"/><path d="M4.7 75H75v3H4.6v-3z" fill="#1E1E1E"/><path d="M4.7 37.2h3v38h-3V37z" fill="#1E1E1E"/><path d="M8.8 76.2l-2-2.3 22.7-19 2 2.3L9 76.3M49.8 57.8l2-2.3 21 18.4L71 76 49.8 57.8" fill="#1E1E1E"/><path d="M23.2 49.6V26.2h34.2v24" stroke="#1E1E1E" stroke-width="2"/><path d="M27.3 30.5h26V33h-26v-2.5zM27.3 35.5h26V38h-26v-2.5zM27.3 40.4h26V43h-26v-2.6z" fill="#1E1E1E"/></g>
        </symbol>
        <symbol id="mail-outline" viewBox="0 0 80 80">
            <g fill="#1E1E1E" fill-rule="evenodd"><path d="M2 22.4L4 20l38 31.5-2 2.4L2 22.3"/><path d="M39.8 54l-2-2.3 35.5-31.2 2 2.3-35.5 31"/><path d="M77.4 18.4v3.2H.4v-3.2h77"/><path d="M74.2 18.4h3.2v48h-3.2v-48"/><path d="M77.4 63.2v3.2H.4v-3.2h77M3.6 63.2H.4V21.6h3.2v41.6"/><path d="M5 64.4l-2.4-2.6 25-20.8 2.3 2.6L5 64.4M50 44.3l2-2.6L75.2 62l-2 2.4-23.3-20"/></g>
        </symbol>
        <symbol id="mail-stack" viewBox="0 0 80 81">
            <g fill="#1E1E1E" fill-rule="evenodd"><path d="M1.8 25l1.8-2.3 35.2 28.8-2 2.2L2 25"/><path d="M36.8 53.8l-2-2L68 23l1.8 2.2-32.8 28.6"/><path d="M71.5 21.2v3H.3v-3h71.2"/><path d="M68.5 21.2h3v44h-3v-44"/><path d="M71.5 62.2v3H.3v-3h71.2M3.2 62.2h-3v-38h3v38"/><path d="M4.4 63.4l-2-2.4 23-19 2.2 2.3-23.2 19M46 45l2-2.4L69.5 61l-2 2.4L46 45"/><g><path d="M80 12v2.8H8.8v-3H80M80 56h-8.5v-3H80v3z"/><path d="M77 12h3v44h-3V12M8.8 21.5v-6.7h3v6.7h-3z"/></g></g>
        </symbol>
        <symbol id="mail" viewBox="0 0 80 80">
            <path d="M77.8 17.2l-25 21 25 23.7.2-1.5v-42c0-.5 0-1-.2-1.3zM39.5 48.7L29.7 41 4.4 64.7l1.2.2h67.8c.4 0 .8 0 1.2-.2l-25.3-24-9.8 8zM33 38l6.5 5.3 10-8 25.2-21c-.4-.2-1-.3-1.3-.3H5.6c-.4 0-1 0-1.3.2l25.3 21.2L33 38zM1 17.3L1 18.5v42c0 .5 0 1 .3 1.4l25-23.7-25-21z" fill="#1A1918" fill-rule="evenodd"/>
        </symbol>
        <symbol id="menu" viewBox="0 0 80 80">
            <g fill="#000" fill-rule="evenodd"><path d="M74 13.3H7.6c-2.6 0-4.8 2-4.8 4.7 0 2.6 2.2 4.8 4.8 4.8H74a4.8 4.8 0 0 0 0-9.5zM74 35.8H7.6c-2.6 0-4.8 2-4.8 4.8 0 2.6 2.2 4.7 4.8 4.7H74c2.7 0 4.8-2 4.8-4.7s-2-4.8-4.7-4.8zM74 58.3H7.6c-2.6 0-4.8 2.2-4.8 4.8C2.7 65.8 5 68 7.5 68H74c2.7 0 4.8-2 4.8-4.7 0-2.5-2-4.7-4.7-4.7z"/></g>
        </symbol>
        <symbol id="money" viewBox="0 0 80 80">
            <path d="M78 35.4c-.2 0-2.4-3-3.8-5l1-1.2c1.2-1 1.2-2.8 0-3.8L51.3 1c-1.2-1-3-1-4 0l-44 44c-1 1.2-1 3 0 4l13.2 13v4.4c0 6.8 12.6 10.4 25 10.4s25-3.6 25-10.4V47l11-8a2.7 2.7 0 0 0 .5-3.6zM16.4 47.7v7L8.8 47 49 6.8l20.5 20.5L57 39.8c-4.4-1.4-10-2.2-15.6-2.2-12.2 0-24.4 3.5-25 10zm25 24.8c-3.4 0-6.4-.2-9-.6a29 29 0 0 1-9-3c-2-1-2.8-2-2.8-2.6 0-.6.6-1.4 1.8-2a30.7 30.7 0 0 0 7.8 2.3c2 .4 4.4.7 6.7.8h1l3.4.2c7 0 14-1.2 19-3.4 1 .7 1.7 1.5 1.7 2 0 2.2-7.2 6.2-20.6 6.2zm18.8-13c-.6.3-1.4.7-2.4 1a46.6 46.6 0 0 1-16.5 2.7l-.4.2a60 60 0 0 1-6-.3h-1a40.8 40.8 0 0 1-9-2.4c-1-.4-2-.8-2.5-1.2-1.2-.8-1.8-1.6-1.8-2.2 0-.6.6-1.3 1.8-2a54.2 54.2 0 0 0 19 3.4c1.5 0 3 0 4.6-.3h.6a56.8 56.8 0 0 0 7.2-1c2.5-.6 4.7-1.3 6.5-2.2 1.2 1 1.8 1.6 1.8 2.2 0 .6-.5 1.4-1.7 2.2zm3-16.8l-1.4-.7 8-7.7 2 2-8.8 6.4z" fill="#010101" fill-rule="evenodd"/>
        </symbol>
        <symbol id="mouse" viewBox="0 0 80 81">
            <path d="M44.5 29.4c-.8-1.3-2.5-2-3.7-1.2-1.3.7-1.7 2.3-1 3.7l4.2 7a3 3 0 0 0 2.5 1.7A2.4 2.4 0 0 0 49 39a3 3 0 0 0-.4-2.4l-4-7.2zM76 51.2L62.2 25a18 18 0 0 0-16-8.7c-3 0-6 .6-8.8 2l-1.7-3.7a9.4 9.4 0 0 0-12.8-4l-3.7 1.8c-.6.2-7.3 3-9.7-1.6L6 3.8c-.4-1.2-1.7-1.6-2.8-1a2 2 0 0 0-1 2.7l3.5 7.2c3.3 6 10.5 5.3 14.4 4l.3-.2.6-.2 3.7-2a5 5 0 0 1 7 2.2l2 3.6v.2C25.3 26 22.2 36.4 27 44.5l15.2 25v.2c4 5.5 10 8.8 16.2 8.8 3.2 0 6.5-1 9.6-2.6 9.2-5 12.5-15 8-24.8zM65.4 71.4c-2.3 1.2-4.7 2-7 2a14 14 0 0 1-11.6-6.6l-15.3-25c-3.5-6-.5-14.2 6.7-18.2 2.5-1.3 5.3-2 8-2 5 0 9.2 2.2 11.3 6l13.7 25.8c3.2 7.2 1 14.2-5.8 18z" fill="#010101" fill-rule="evenodd"/>
        </symbol>
        <symbol id="msg" viewBox="0 0 81 80">
            <path d="M13.4 4C7.2 4 2.2 9.2 2.2 15.6v32.6c0 6.4 5 11.6 11.2 11.6H38L56 76V59.8h11c6.2 0 11.3-5.2 11.3-11.6V15.6C78.3 9.2 73.3 4 67 4H13.5z" fill="#000" fill-rule="evenodd"/>
        </symbol>
        <symbol id="msgs" viewBox="0 0 80 81">
            <path d="M78 54.3V32.7c0-6-4.5-10.7-10.2-11.3V43c0 9-7.3 16.3-16.2 16.3h-25l-5.2 4c2 1.4 4.4 2.3 7 2.3h27c11 11 22.5 9 20.2 7.2a16.3 16.3 0 0 1-6-7.6c4.8-1.2 8.4-5.6 8.4-11zm-26.4 0c6.2 0 11.2-5.2 11.2-11.4V21c0-6.2-5-11.3-11.2-11.3H13.3C7 10 2 15 2 21V43c0 5 3.6 9.5 8.4 10.8-.8 2.4-2.6 5-6 7.5-1 .7.3 1.5 2.8 1.5 3.8 0 10.7-2 17.2-8.6h27.2z" fill="#010101" fill-rule="evenodd"/>
        </symbol>
        <symbol id="nav-left" viewBox="0 0 80 80">
            <g fill="none" fill-rule="evenodd"><path d="M63.4 64.6a6.2 6.2 0 0 1 0 9L61 76a7 7 0 0 1-9.5 0l-31-29.5L18 44a6.2 6.2 0 0 1 0-9l2.4-2.3 31-29.8A7 7 0 0 1 61 3L63.4 5a6.2 6.2 0 0 1 0 9L37 39.6l26.4 25z" fill="#000"/></g>
        </symbol>
        <symbol id="nav-right" viewBox="0 0 80 80">
            <path d="M43.3 39.5L17 14.3a6.2 6.2 0 0 1 0-9l2.4-2.4A7 7 0 0 1 29 3l31 29.6 2.4 2.4c1.4 1.2 2 3 2 4.5 0 1.7-.6 3.4-2 4.6L60 46.5 29 76a7 7 0 0 1-9.6 0L17 73.7a6.2 6.2 0 0 1 0-9l26.3-25.2z" fill="#000" fill-rule="evenodd"/>
        </symbol>
        <symbol id="nav-top" viewBox="0 0 80 81">
            <path d="M40.5 37L15.3 63.5a6.2 6.2 0 0 1-9 0L3.8 61a7 7 0 0 1 0-9.6l29.6-31 2.4-2.5c1.2-1.4 3-2 4.5-2 1.7 0 3.4.6 4.6 2l2.4 2.3 29.6 31a7 7 0 0 1 0 9.7l-2.3 2.4a6.2 6.2 0 0 1-9 0L40.4 37z" fill="#000" fill-rule="evenodd"/>
        </symbol>
        <symbol id="newspaper" viewBox="0 0 80 80">
            <path d="M67.8 30.4h-17V34h17v-3.6zm0-10.8h-17V23h17v-3.4zm-23.4-3H23.8v21h20.6v-21zM76.4 6H15.8c-2.3 0-2.8.6-2.8 2.7v9H4.7c-2 0-2.7.5-2.7 2.7v45.2C2 68.8 5.7 73 9.3 73h67c2 0 2.7-.6 2.7-2.8V8.7c0-2-.6-2.7-2.7-2.7zm-2 62.3h-65c-1 0-2.7-1.8-2.8-2.7V22.3h6.6V64h4.5V10.8h56.7v57.6zm-6.6-23.7h-44V48h44v-3.4zm0 10.8h-44V59h44v-3.6z" fill="#010101" fill-rule="evenodd"/>
        </symbol>
        <symbol id="notallowed" viewBox="0 0 80 80">
            <path d="M39.3.5a38.2 38.2 0 1 0 0 76.5 38.2 38.2 0 0 0 0-76.5zM68 38.8c0 6-2 12-5.3 16.6l-40-40A28.7 28.7 0 0 1 68 38.8zm-57.4 0c0-6.3 2-12 5.4-16.7l40 40a28.7 28.7 0 0 1-45.4-23.3z" fill="#000" fill-rule="evenodd"/>
        </symbol>
        <symbol id="paper-plane" viewBox="0 0 80 80">
            <path d="M68.6 11.4l-61.3 24c-3.4 1.3-3.4 3.3 0 4.5L23 45l6 19c.8 2.3 2.8 2.8 4.5 1l8.2-8.2 15 11.3c3 2.4 6 1.2 6.8-2.4l10.2-50c.7-3.6-1.5-5.5-5-4.2zm-10 13.4L33 48.8c-.3.5-.7 1.3-.7 2l-.7 8c-.3 3.8-1 2.4-1.7 0l-5-15L57 23c5-3 5-1.2 1.6 1.8z" fill="#000106" fill-rule="evenodd"/>
        </symbol>
        <symbol id="parking" viewBox="0 0 80 81">
            <defs><path id="a" d="M0 0h72v72H0z"/></defs><g transform="translate(3 2.5)" fill="none" fill-rule="evenodd"><mask id="b" fill="#fff"><use xlink:href="#a"/></mask><path d="M31 22.3v13.3h5c4 0 6.4-.3 7.6-.8a6.2 6.2 0 0 0 4-6 6 6 0 0 0-1.4-4c-1-1.3-2.3-2-4-2.2-1-.2-3.3-.3-6.7-.3H31zm-9.5 39v-47h15.2c5.7 0 9.5.3 11.2.7 2.6.7 5 2.3 6.7 4.6 1.8 2.4 2.7 5.4 2.7 9.2 0 2.8-.5 5.3-1.6 7.2a13 13 0 0 1-4 4.6c-1.5 1.2-3.2 2-4.8 2.3a54 54 0 0 1-10 .5h-6v17.7h-9.5zM5.5.4s-5 0-5 5v62.2s0 5 5 5h62.2s5 0 5-5V5.5s0-5-5-5H5.5z" fill="#000" mask="url(#b)"/></g>
        </symbol>
        <symbol id="pencil" viewBox="0 0 80 80">
            <path d="M67.8 29.6L50.4 12.2 62 .7 79.2 18 67.8 29.7zM27.5 70L1.7 78.4l8.4-26 34.5-34.3L62 35.7 27.4 70z" fill="#000" fill-rule="evenodd"/>
        </symbol>
        <symbol id="people-female" viewBox="0 0 80 81">
            <path d="M67.2 61.7c-4.3-2-9.3-2.7-17.6-4-.4-1-1.7-4.3-2.6-8 .3 0 1.4 1 1.7 1h1.7c.2 0 4-.8 5.8-.8h1c0 .3.4.4 1 .4l-.3-.8-1.8-4.2s1.5-2 2.6-1.4c1 .5 2.8-.5 2.8-.5C62.8 33.8 64 14.3 54 7a14.5 14.5 0 0 0-8.7-3.7 9 9 0 0 0-6 2.3 9 9 0 0 0-6-2.3c-2.3 0-5.2 1-8.7 3.6-9.8 7.3-9.2 26.4-8.2 36.2 0 0 .7-.5 2 1 1.3 1.4 3.8 1.5 3.8 1.5L21 50.5v.2l1.6-.6h.5c1.5 0 3.2.8 3.6.8a8 8 0 0 0 1.6 0c.7 0 3.3-1 3.8-1-.5 2.3-1.8 6.3-2.8 8-8 1.5-13 2.2-17.2 4.2-10 4.4-10 9.4-10 9.4v5h75v-5c0-.3 0-5.2-9.8-9.7z" fill="#000" fill-rule="evenodd"/>
        </symbol>
        <symbol id="people-male" viewBox="0 0 80 81">
            <path d="M46.7 52.4c3-2.4 4.6-7.3 7.2-14V38c.6.2 1.2.2 1.7-.2 1.2-.7 2-5 2-7 0-3-1.6-2.7-1.6-2.7v-.7c0-2.7.6-7.4-.2-10-1-4-1-5.5-3-7.6-2.7-3-7-4.3-8.6-4.3-1 0-7-2-10.3-1-3.4 1.3-1.5 4.7-4.3 4.7-3 0-4.3 4.4-5.4 8.4-.6 2.5 0 7.2 0 10v.8c-.2 0-1.8-.3-1.8 2.8 0 2 .8 6.3 2 7 .5.3 1 .3 1.7.2v.3c2.8 6.8 4.2 11.6 7.3 14-10.2 1.4-16 5.5-20.7 7.6C3 64.5 3 69.4 3 69.4v8h74.2v-8c.2-.3.2-5-9.6-9.3-4.8-2-10.6-6.3-21-7.6z" fill="#000" fill-rule="evenodd"/>
        </symbol>
        <symbol id="people-one" viewBox="0 0 80 80">
            <path d="M46.2 51c3.2-2.6 4.7-7.5 7.4-14.4 0 0 0-.2.2-.3h.7c.3 0 .7 0 1-.2 1.3-.6 2-5 2-7 0-2.6-1-2.8-1.4-2.8v-.8c0-2.8.5-7.5-.2-10.2-1.2-4-1.3-12.7-16.3-12.7-14 0-15.3 8.7-16.4 12.7-.7 2.6 0 7.3 0 10.2v.8h-.3c-.4 0-1.5.2-1.5 2.8 0 2 .8 6.4 2 7 .4.3.7.4 1 .4h.8l.2.3c2.8 6.8 4.2 11.8 7.4 14.2C22 52 16.2 56.3 11.2 58.5 1 63 1 67.8 1 67.8V76h77v-8.2s0-5-10.2-9.3c-5-2-11-6.3-21.6-7.6z" fill="#000" fill-rule="evenodd"/>
        </symbol>
        <symbol id="people-search" viewBox="0 0 80 81">
            <g fill="#000" fill-rule="evenodd"><path d="M62.8 62a17 17 0 0 1-24.4-15.4c0-7.6 5-14 12-16.2V27c0-2.3.5-6 0-8.2-2-7-7.2-9-13-9-6 0-11 2-13 9-.7 2-.2 6-.2 8.3 0 3.3-.2 5.6.8 8.2 2 4.7 3.6 8.5 6 11-9 1.6-15.2 6.3-19.3 8-8.4 4-8.5 8-8.5 8v7H70L62.8 62"/><path d="M77.4 65.2L66.6 54.5a13.6 13.6 0 1 0-3.3 3.3l11 10.7c1 1 2.4 1 3.3 0 1-.8.8-2.3 0-3.3zm-31-18.5a9 9 0 0 1 18 0 9 9 0 0 1-18 0z"/></g>
        </symbol>
        <symbol id="people-three" viewBox="0 0 80 81">
            <path d="M64.7 59.7v-4.5c0-1-.4-4-5-7-1-1-1.6-2.6-2.3-4.3-.5-1.4-.4-2.4-.4-4 0-1-.2-2.8 0-3.8 1-3.3 3.4-4.2 6-4.2 3 0 5.2 1 6.2 4.2.2 1 0 2.8 0 4 0 1.4 0 2.4-.4 3.7-.8 2-1.6 3.8-2.7 5 4.3.7 7 3 9 3.7 4 1.8 4 3.7 4 3.7v3.3H64.7zm-3.4 0H17.7v-4.5s0-2.6 5.4-5C25.8 49 29.7 46 35.5 45c-1.5-1.6-2.6-4-3.8-7-.6-1.7-.5-3.2-.5-5.3 0-1.5-.2-4 .2-5.2 1.2-4.6 4.5-5.8 8.2-5.8 3.8 0 7 1.2 8.3 5.7.4 1.4 0 3.8 0 5.3 0 2 .2 3.6-.4 5.3-1.2 3-2.3 5.3-3.8 7 5.8 1 9.7 4 12.4 5 5.3 2.6 5.3 5.2 5.3 5.2v4.5zM21.5 44c-.7 1.7-1.4 3.2-2.2 4.3-4.6 2.8-5 6-5 7v4.4H0v-3.3s0-2 4-3.6c2-1 4.7-3 9-3.8-1.2-1.2-2-3-3-5-.3-1.4-.3-2.4-.3-4 0-1-.2-2.8 0-3.8 1-3.3 3.4-4.2 6-4.2 3 0 5.2 1 6.2 4.2v4c0 1.4 0 2.4-.5 3.7z" fill="#000" fill-rule="evenodd"/>
        </symbol>
        <symbol id="people-two" viewBox="0 0 80 81">
            <path d="M70 12.8H10a8 8 0 0 0-8 8v39.8a8 8 0 0 0 8 8h60a8 8 0 0 0 8-8v-40a8 8 0 0 0-8-7.8zm2.6 47.8v.2c-.3-.8-1.3-2.7-5-4.4-2.4-1-5-1.5-9.4-2.2-.2-.4-1-2.2-1.3-4 0 0 .6.5.8.5h.8c.2 0 2.2-.5 3-.5h.5c.2.2.4.2.7.2V50l-1-2.2s.7-.8 1.2-.8h.5l1-.2c.7-5 1.4-15.3-4-19.2a7.8 7.8 0 0 0-4.5-1.8 5 5 0 0 0-3 1 5 5 0 0 0-3.2-1c-1.3 0-3 .4-4.7 1.8-5 3.8-4.7 14-4.2 19 .3 0 .6 0 1 .5.7.8 2 1 2 1l-.7 2.4c.4 0 .7 0 1-.2h.2c.8 0 1.7.4 2 .4h.7l2-.6a19 19 0 0 1-1.6 4.2c-4.2.8-6.8 1.2-9 2.2-5.2 2.3-5.2 5-5.2 5v2H31v-2c0-.8.3-4.3 6.5-7l2-.8a25 25 0 0 0-9-3c1.6-1.3 2.4-4 3.8-7.6.4 0 .7 0 1-.2.6-.5 1-2.7 1-3.8 0-1.7-.8-1.5-.8-1.5V37c0-1.4.3-4 0-5.3-.7-2-.6-3-1.7-4a7.7 7.7 0 0 0-4.6-2.4c-.6 0-3.7-1-5.5-.5-1.8.6-.8 2.4-2.2 2.4-1.6 0-2.3 2.4-3 4.5-.3 1.4 0 3.8 0 5.4v.5s-1-.2-1 1.5c0 1 .5 3.3 1.2 3.8h1v.2c1.4 3.7 2 6.3 3.8 7.6-5.4.7-8.4 3-11 4-4 1.8-5 3.7-5.2 4.5V20.8c0-1.5 1.2-2.6 2.7-2.6h60c1.4 0 2.6 1.2 2.6 2.7v40z" fill="#010101" fill-rule="evenodd"/>
        </symbol>
        <symbol id="phone" viewBox="0 0 80 81">
            <path d="M77.3 61.8L60.8 52c-1-.3-2 0-2.8.6l-5 4.8a5 5 0 0 1-2.8 1.3s-6.2 0-17.8-11.5C21 35.7 21 29.5 21 29.5a5 5 0 0 1 1.2-3l4.2-4c.6-.8 1-2 .5-3l-9.2-17c-.4-1-1.3-1-2-.4L4.5 13.4a6 6 0 0 0-1.4 3S1 32.7 24 55.8c23 23 39.4 20.8 39.4 20.8a6 6 0 0 0 3-1.5l11.2-11c.7-.8.5-1.7-.3-2.2z" fill="#010101" fill-rule="evenodd"/>
        </symbol>
        <symbol id="photocamera" viewBox="0 0 80 80">
            <path d="M39.5 30.8a12 12 0 0 0-12 12 12 12 0 0 0 12 12 12 12 0 0 0 12-12 12 12 0 0 0-12-12zm37-12.2H61L58.5 14c-.6-1-2-2-3.4-2H24.7c-1.3 0-2.8 1-3.4 2L19 18.7H2.3C1 18.6 0 19.6 0 21v44.6C0 67 1 68 2.4 68h74.2c1.3 0 2.4-1 2.4-2.4V21c0-1.3-1-2.4-2.4-2.4zm-37 42.6A18.5 18.5 0 0 1 21 42.8a18.5 18.5 0 0 1 37.2 0c0 10.2-8.4 18.4-18.7 18.4z" fill="#010101" fill-rule="evenodd"/>
        </symbol>
        <symbol id="piggybank" viewBox="0 0 80 81">
            <path d="M77.6 48.8a1 1 0 0 0-1.3.7s-.8 2.7-2.6 2.2h-.2c.6-1 1-1.8 1-3 0-2-.5-3.4-1.5-4-1-.5-2.2.2-2.3.3-.2 0-.3.2-.3.3 0 0-1.8 3-.8 5.6l.6 1c-.3 0-.7.3-1 .5v-1a23 23 0 0 0-23.5-22.7c-6 0-12 2.4-16.3 6.5-3.6-5-6.7-5.5-8-5.5H21c-1 .3-1.8 1-1.8 2v4.6A16 16 0 0 0 7 46.7H4.4c-1 0-2 1-2 2v10.7c0 1 1 2 2 2h5A16.3 16.3 0 0 0 25 67v6.5c0 2 1.7 3.7 3.8 3.7h5.6c2 0 3.8-1.6 3.8-3.7V73a24 24 0 0 0 15.2-.2v.7c0 2 1.7 3.8 3.7 3.8H63c2 0 3.7-1.7 3.7-3.8V62a22 22 0 0 0 2.4-7.3c.8-.2 2-.7 3-1.5l1 .5c3 .8 4.8-2 5.3-3.6.2-.4 0-1-.7-1.2zm-15 11.5a2 2 0 0 0-.2 1V73h-5v-3.3a2 2 0 0 0-2.8-1.8A19.7 19.7 0 0 1 37 68a2 2 0 0 0-3 2v3h-4.8v-8.7a2 2 0 0 0-2.8-2 12.3 12.3 0 0 1-14.2-4 2 2 0 0 0-1.6-1h-4v-6.5h1.8a2 2 0 0 0 2-1.6c1.2-5 5.7-8.6 11-9 1 0 2-1 2-2v-3.4a16 16 0 0 1 4 5c.3.4 1 .8 1.5 1a2 2 0 0 0 1.7-1c3.7-4.3 9.2-6.8 15-6.8A19 19 0 0 1 65 51.5c0 3-.8 6-2.3 8.8zm9.8-11.6c0 .7-.3 1.3-.6 1.8l-.3-.4c-.4-1 0-2.6.5-3.4 0 0 .4.3.4 2zm-56-3.6c-.7 0-1.3 1-1.3 2.3 0 1.2.7 2 1.4 2 .8 0 1.4-.8 1.4-2s-.6-2.2-1.4-2.2zm35.4-7.5c-7-2.6-11 0-11 0a1 1 0 0 0-.4 1.5c.3.5 1 .6 1.4.3 0 0 3.4-2 9.3 0 .2.2.4.2.5.2a1 1 0 0 0 1-.7c0-.5 0-1-.7-1.3zm-.7-12A5.6 5.6 0 1 0 51 14a5.6 5.6 0 0 0 0 11.2zm6.2-15.7a4.4 4.4 0 1 0 0-9 4.4 4.4 0 0 0 0 9z" fill="#010101" fill-rule="evenodd"/>
        </symbol>
        <symbol id="pizza" viewBox="0 0 80 80">
            <path d="M36.8 63a29.2 29.2 0 1 1 28.4-22.5l3.5 1a32.8 32.8 0 1 0-25.3 24.3l-.7-3.4c-2 .3-4 .5-6 .5zm6.7-27.7L63 40A27 27 0 0 0 36.8 6.8 27 27 0 1 0 42.2 60l-5.5-26.3 3.7 1c-.4-.6-.7-1.2-.7-2a2.7 2.7 0 1 1 3.8 2.6zm-23-14.8a4 4 0 1 1 0 8 4 4 0 0 1 0-8zM20.3 46a5 5 0 1 1 0-10 5 5 0 0 1 0 10zm12.4-21.5a3.3 3.3 0 1 1 0 6.6 3.3 3.3 0 0 1 0-6.5zm-3.3 16a3.3 3.3 0 1 1 6.6 0 3.3 3.3 0 0 1-6.7 0zM39.6 53a3.8 3.8 0 1 1-7.5 0 3.8 3.8 0 0 1 7.6 0zm-2.8-32.3a4.7 4.7 0 1 1 0-9.4 4.7 4.7 0 0 1 0 9.4zm22 10a4.5 4.5 0 1 1-9 0 4.5 4.5 0 0 1 9 0zM48.6 16a3.3 3.3 0 1 1 0 6.5 3.3 3.3 0 0 1 0-6.6zm25 32.7a29.3 29.3 0 0 1-22.6 21.8l.6 3.5A32.8 32.8 0 0 0 77 49.5l-3.6-.8zM71 48l-19.4-4.5a2.7 2.7 0 0 1-3.3-.8l-3.6-1 5.4 26.6A27 27 0 0 0 71.2 48zM53 57.4a4.7 4.7 0 1 1 0-9.3 4.7 4.7 0 0 1 0 9.3zm7.7-7.8a2.7 2.7 0 1 1 5.5 0 2.7 2.7 0 0 1-5.5 0z" fill="#010101" fill-rule="evenodd"/>
        </symbol>
        <symbol id="play-bg" viewBox="0 0 80 80">
            <path d="M40.5 2a38.5 38.5 0 1 0 0 77 38.5 38.5 0 0 0 0-77zm-15 58.3V20.8l39.7 19.8-39.6 19.7z" fill="#010101" fill-rule="evenodd"/>
        </symbol>
        <symbol id="plus" viewBox="0 0 80 80">
            <path d="M51.3 29V1H29v28H1v22.4h28v28h22.3v-28h28V29h-28z" fill="#000" fill-rule="evenodd"/>
        </symbol>
        <symbol id="postit" viewBox="0 0 80 80">
            <path d="M73.4 9.2l-25 1.6a5.3 5.3 0 0 0-1.5-3C45.7 6.5 44 6 42 6c-2.3 0-3.8.4-4.7 1.4-1 1-1 2.5-1 3.6v.4L9 9.2 4 69.4l60.3 4.8.6-6.4L77 67 73.4 9.2zM39 9.2c.3-.4 1-.8 3-.8 1.5 0 2.6.4 3.2 1 .5.5.7 1 .8 1.6l-7.2.4V11c0-1 0-1.6.3-2zm23 62.4L6.7 67.2 11 11.8l35 2.8v16c0 2-1.8 3.4-4.7 3.4-1.7 0-3.5-1.2-3.5-10.3h-2.4c0 6.3.7 12.8 6 12.8 4.2 0 7-2.5 7-6V14.8l18.2 1.4L62 71.6z" fill="#000106" fill-rule="evenodd"/>
        </symbol>
        <symbol id="power" viewBox="0 0 80 80">
            <path d="M40 49.3c3.2 0 5.8-2.5 5.8-5.6v-36C45.8 4.4 43.2 2 40 2c-3 0-5.6 2.5-5.6 5.6v36c0 3.2 2.6 5.7 5.7 5.7zM63.4 18c-2.4-2.2-6-2-8 .4-2 2.3-2 5.8.4 8a23 23 0 0 1 8 17.2A23.4 23.4 0 0 1 40 66.8c-13 0-23.6-10.4-23.6-23.2 0-7 3-13 8-17.4 2.3-2 2.5-5.6.4-8a5.8 5.8 0 0 0-8-.4A34 34 0 0 0 5 43.6C5 62.6 20.7 78 40 78s35-15.4 35-34.4A34 34 0 0 0 63.3 18z" fill="#000" fill-rule="evenodd"/>
        </symbol>
        <symbol id="poweruser" viewBox="0 0  ">
            <path d="M35.6 12.6H32h-.3v-.2l-1-3.5-.2-.4s-.2-.3-.5-.3-.4.2-.5.3V9l-1 3.4h-.2s0 .2-.2.2h-3.3-.4l-.2.3v.3c0 .2 0 .3.2.4l.2.2 2.7 1.7.2.3-1 3.5-.2.3v.4l.6.2c.3 0 .4 0 .5-.2L30 18h.2l3 2 .5.2s.3 0 .4-.2v-.4-.3l-1.3-3.5v-.3l2.8-1.8s.2 0 .2-.2l.2-.4s0-.2-.2-.3h-.2zm-17 4.4h-.3-.2l-2.6.5H15l-1.4-2.8s0-.2-.2-.2c0 0-.2-.2-.4 0-.2 0-.3 0-.3.2l-.2.3-.2 3-.2.2-2.7.6h-.3s0 .2-.2.3v.4c0 .2 0 .2.2.3h.2l2.5 1 .3.3-.2 3v.4l.3.3h.4c.2 0 .3 0 .4-.2l1.8-2.3h.2l2.7 1.2h.5s.3 0 .3-.2V23v-.4L16.6 20v-.2l2-2 .2-.5-.4-.3zM51 19c-.2 0-.3-.2-.3-.2l-2.7-.6-.2-.2-.2-3v-.3l-.4-.3h-.4c0 .2 0 .3-.2.3l-1.4 2.7H45l-2.7-.5H42h-.2s0 .2-.2.3v.4s.2 0 .3.2l1.8 1.8v.2l-1.3 2.6v.5c0 .2 0 .3.2.4h.5l2.5-1.5h.2l1.8 2.3.4.3h.4c0-.2 0-.3.2-.4V24l-.4-3v-.2-.2l2.6-1h.2l.2-.4V19H51zm9 8.4h-.2l-1.6-.8v-.2l.2-1.7v-.2s0-.2-.2-.2h-.5l-1.2 1.4h-.2l-1.6-.7h-.4v.3l1 1.4-1.2 1.4V28.7h.4l1.7-.4h.2l.8 1.6.2.2h.2v-.3L58 28v-.2l1.7-.2h.2v-.3c0 .2 0 0 0 0zM5.7 27l-1.5-1 .6-1.6v-.2-.2h-.2-.2L3 25l-1.5-1v-.2H1v.6l.6 1.7v.2l-1.4 1v.4H2l.6 1.8.2.2H3c.2 0 .2-.2.3-.3l.5-1.7h2l.2-.2V27h-.2zM47.3 51.8v-3c0-.8-.3-3-3.4-4.8a14 14 0 0 1-1.5-3c-.3-.8-.3-1.6-.3-2.6v-2.6c.6-2.3 2.2-3 4-3 1.8 0 3.4.7 4 3 .2.7 0 2 0 2.6 0 1 0 1.7-.3 2.6-.7 1.5-1.2 2.7-2 3.5 3 .5 4.8 2 6 2.6 2.7 1.3 2.8 2.6 2.8 2.6v2.2h-9.5zm-2.3 0H15.8v-3s0-2 3.6-3.5c1.8-.8 4.3-2.8 8.2-3.6-1-1-1.7-2.8-2.5-4.8-.3-1.3-.3-2.3-.3-3.7 0-1-.2-2.7 0-3.6 1-3 3-4 5.6-4 2.5 0 4.7 1 5.5 4 .3 1 0 2.6 0 3.6 0 1.4.2 2.4-.3 3.6-.8 2-1.5 3.6-2.5 4.7 4 .7 6.5 2.8 8.3 3.6C45 47 45 48.8 45 48.8v3zM18.4 41c-.5 1.2-1 2.3-1.5 3-3.2 2-3.4 4-3.5 4.7v3H4v-2s0-1.4 2.6-2.6c1.3-.5 3.2-2 6-2.5-.7-.8-1.3-2-1.8-3.5-.3-.8-.3-1.6-.3-2.6v-2.6c.6-2.3 2.2-3 4-3 1.8 0 3.4.7 4 3 .2.7 0 2 0 2.6.2 1 .2 1.7 0 2.6z"/>
        </symbol>
        <symbol id="print" viewBox="0 0 80 80">
            <path d="M71 32.3h-7.5V1H31L17.5 15v17.3H10l-10 12V75h81V44.2l-10-12zM23 20.5h13v-14h22.2V40H23V20.4zM75.3 69H5.6V46.4l7-8.2h5v7.2h46v-7.2h4.8l7 8.2V69z" fill="#010101" fill-rule="evenodd"/>
        </symbol>
        <symbol id="puzzle" viewBox="0 0  ">
            <path d="M49 44c4-4 7.7-8.4 11-13a101 101 0 0 1-13-10.7l-.6.3c0 2-.7 3.8-2.2 5.2a6.5 6.5 0 0 1-9.3-.3 6.6 6.6 0 0 1 .4-9.3c1.5-1.4 3.5-2 5.4-1.7l.3-.6c-3.5-4.5-6.7-9-9.4-14-5 3-9.6 6.2-14 10 0-.2-.3-.3-.5-.4.4-2-.2-3.8-1.5-5.3A6.8 6.8 0 0 0 6 4a6.6 6.6 0 0 0-.5 9.3 6.2 6.2 0 0 0 5.2 2l.3.7A99 99 0 0 0 0 29c4.6 3.3 9 6.8 13 10.7l.6-.3c0-2 .7-3.8 2.2-5.2 2.7-2.5 7-2.4 9.3.3a6.6 6.6 0 0 1-.4 9.3 6.5 6.5 0 0 1-5.4 1.7l-.3.6c3.5 4.4 6.7 9 9.5 13.8 5-3 9.6-6.2 14-10"/>
        </symbol>
        <symbol id="radio-active" viewBox="0 0 80 80">
            <g fill="none" fill-rule="evenodd"><path d="M41 6.4a33 33 0 1 0 0 66 33 33 0 0 0 0-66z" stroke="#000" stroke-width="7"/><path d="M41 23.2a16 16 0 1 0 0 32 16 16 0 0 0 0-32z" fill="#000"/></g>
        </symbol>
        <symbol id="radio" viewBox="0 0 80 80">
            <path d="M41 6.4a33 33 0 1 0 0 66 33 33 0 0 0 0-66z" stroke="#000" stroke-width="7" fill="none" fill-rule="evenodd"/>
        </symbol>
        <symbol id="reload" viewBox="0 0 80 80">
            <path d="M58 44.5V47c0 9.5-7.8 17.3-17.5 17.3S23 56.5 23 47a17.5 17.5 0 0 1 19.7-17.2v14l4.4-4.5 14-13.7 1.8-1.8L61 22 47 8.3 42.8 4v13h-2.2A30.3 30.3 0 0 0 10 47c0 16.6 13.7 30 30.5 30A30.3 30.3 0 0 0 71 47v-2.5H58z" fill="#000" fill-rule="evenodd"/>
        </symbol>
        <symbol id="reporter-video" viewBox="0 0 80 81">
            <g fill="#1A1918" fill-rule="evenodd"><path d="M71.5 26.6c0 .6-.4 1-1 1H66a1 1 0 0 1-1-1V22c0-.6.3-1 1-1h4.5c.6 0 1 .4 1 1v4.6zm0 11.5c0 .6-.4 1-1 1H66a1 1 0 0 1-1-1v-4.6c0-.6.3-1 1-1h4.5c.6 0 1 .4 1 1V38zm0 11c0 .5-.4 1-1 1H66a1 1 0 0 1-1-1v-4.7c0-.6.3-1 1-1h4.5c.6 0 1 .4 1 1V49zm0 11.4c0 .6-.4 1-1 1H66a1 1 0 0 1-1-1v-4.7c0-.6.3-1 1-1h4.5c.6 0 1 .4 1 1v4.7zm-11.5.3c0 1.2-1 2-2 2H20c-1.2 0-2-.8-2-2v-39c0-1.3.8-2.2 2-2.2h38c1 0 2 1 2 2v39.2zm-47-34c0 .5-.4 1-1 1H7.5a1 1 0 0 1-1-1v-4.8c0-.6.5-1 1-1H12c.6 0 1 .4 1 1v4.6zM13 38c0 .6-.4 1-1 1H7.5a1 1 0 0 1-1-1v-4.6c0-.6.5-1 1-1H12c.6 0 1 .4 1 1V38zm0 11c0 .5-.4 1-1 1H7.5a1 1 0 0 1-1-1v-4.7c0-.6.5-1 1-1H12c.6 0 1 .4 1 1V49zm0 11.4c0 .6-.4 1-1 1H7.5a1 1 0 0 1-1-1v-4.7c0-.6.5-1 1-1H12c.6 0 1 .4 1 1v4.7zM5 14.7c-1 0-2 1-2 2v49c0 1 1 2 2 2h70c1 0 2-1 2-2v-49c0-1-1-2-2-2H5z"/><path d="M30.8 50.5l19-9.6-19-9.7v19.2"/></g>
        </symbol>
        <symbol id="right" viewBox="0 0 80 81">
            <path d="M22 78.5L59.2 40 22 1.8v76.8z" fill="#000" fill-rule="evenodd"/>
        </symbol>
        <symbol id="share" viewBox="0 0 80 80">
            <path d="M78 30.8l-28.5 20v-13c-6.2 0-10.3.3-12.8.6-15.7 2-20 12.4-20 12.4 0-25.4 32.8-28 32.8-28V11L78 30.8zm-60-5.4H6.6v40h57.6V52l4.3-7v25H2V20.6h30c-.4.3-1 .3-1.2.5-5.5 2.7-9.5.6-12.8 4.4z" fill="#000" fill-rule="evenodd"/>
        </symbol>
        <symbol id="shield" viewBox="0 0 80 81">
            <path d="M40 69c10-3.7 16.2-16.4 19.5-29.3H40V69zM17.3 19c.4 6 1.4 13.4 3.2 20.7H40V10c-9.3 1.6-20 5.4-22.7 9zM71 17C67 6 43 2.2 40.3 1.8h-.8C37 2.2 13 5.8 9 17v.9c0 2 2 52 30.3 59.4l.7.2.7-.2C69 70 71 20 71 18v-1zM40 72.2c-22.7-6.8-25.6-48.7-26-54C17 12.6 31 8.3 40 7c8.8 1.3 23 5.5 25.8 11.3-.2 5.2-3 47-25.8 54z" fill="#010101" fill-rule="evenodd"/>
        </symbol>
        <symbol id="star-outline" viewBox="0 0 80 81">
            <path d="M40.2 5.7c.2 0 .4 0 .7.4 0 .5.3.8.4 1.3l6.4 23 .4.3c.2.3.5.8 1 1.2 1 .7 2 1 3 1h21.5l1.3.3.4.3V34c0 .2 0 .3-.3.6 0 .2-.3.4-.7.6L57 46.7c-1.3 1-2 2.7-2 4v1L62.6 74l.2 1.3c0 .2 0 .4-.3.6h-.3c-.6 0-.8-.2-1.4-.6h-.2L43 60.8c-1-1-2.2-1-2.6-1-.5 0-1.8 0-3 1L21 75.2s-.2 0-.2.2c-.6.4-.8.5-1.3.6 0 0-.3 0-.4-.2-.3-.3-.3-.6-.3-.7v-.8l7-22.5V51c0-1.5-.8-3.6-2.4-4.5L6 35.3l-.6-.6-.4-.8c0-.2 0-.4.2-.5l.2-.2c.6-.2 1-.2 1.3-.2h21.5c1 0 2.2-.4 3-1 1-1 1.6-1.8 1.8-2.8l6-22 .6-1c.3-.5.5-.5.6-.5m0-3a4 4 0 0 0-3 1.7c-.5.7-.8 1.3-1 2L30 28.6c0 .3-.2.6-.7 1-.3.3-.8.5-1 .5H6.6c-.8 0-1.5.2-2.4.5A3.7 3.7 0 0 0 2 34c0 1.2.6 2 1 2.5.4.6 1 1 1.5 1.3L21.8 49c.4.3 1 1.2 1 2v.3L16 73l-.3 2c0 .7 0 1.5.7 2.4.6 1 2 1.6 3 1.6 1.7 0 2.4-.8 3.3-1.4l16.8-14.4 1-.2c.2 0 .6 0 .7.2L59 77.7c.8.6 1.7 1.3 3.3 1.4 1 0 2.3-.5 3-1.3.5-1 .6-1.8.6-2.4 0-.8-.2-1.4-.5-2L58 51v-.3c0-.6.4-1.4.6-1.6L76 38c.5-.4 1-.7 1.4-1.3.5-.6 1-1.3 1-2.6.2-1-.2-2-.6-2.5a4 4 0 0 0-2.2-1.3c-.6 0-1.2-.3-2-.3H52.3c-.2 0-.7-.2-1-.5-.4-.3-.6-.7-.8-1l-6-22-1-2A4 4 0 0 0 40 2.6" fill="#000106" fill-rule="evenodd"/>
        </symbol>
        <symbol id="star" viewBox="0 0 80 81">
            <path d="M76.8 31a4 4 0 0 0-2.2-1.3c-.6-.2-1.2-.3-2-.3H51.3c-.2 0-.7 0-1-.5-.4-.3-.6-.8-.8-1L43.5 6l-1-2A4 4 0 0 0 39 2.2a4 4 0 0 0-3 1.6c-.5.7-.8 1.3-1 2L29 28c0 .3-.2.7-.7 1-.3.4-.8.5-1 .5H5.6c-.8 0-1.5.2-2.4.5A3.7 3.7 0 0 0 1 33.3c0 1.3.6 2 1 2.6.4.5 1 1 1.5 1.2l17.3 11.4c.4 0 1 1 1 1.8v.3L15 72.5c-.2.6-.3 1.3-.3 2 0 .6 0 1.5.7 2.4.6 1 2 1.5 3 1.5 1.7-.2 2.4-1 3.3-1.5l16.8-14.3 1-.2c.2 0 .6 0 .7.2L58 77.2c.8.5 1.7 1.3 3.3 1.4 1 0 2.3-.6 3-1.4.5-1 .6-1.8.6-2.4 0-.8-.2-1.4-.5-2L57 50.4V50c0-.4.4-1.3.6-1.4L75 37.2c.5-.3 1-.7 1.4-1.3.5-.7 1-1.4 1-2.7.2-1-.2-2-.6-2.3" fill="#000106" fill-rule="evenodd"/>
        </symbol>
        <symbol id="suitcase" viewBox="0 0 80 80">
            <path d="M49.3 27v-6.2c0-1.4-1-2.8-2.3-2.8H33c-1.3 0-2.3 1.4-2.3 2.8V27H17.3C16 27 15 28.4 15 29.8V58c0 1.5 1 3 2.3 3h46c1.2 0 2.2-1.5 2.2-3V30c0-1.4-1.4-2.8-2.8-2.8H49.3zm-15-2.4c0-1.4 1-2.8 3-2.8h5.5c1.4 0 2.8 1.4 2.8 2.8V27H34.4v-2.4z" fill="#000" fill-rule="evenodd"/>
        </symbol>
        <symbol id="template" viewBox="0 0 80 80">
            <g fill="#000" fill-rule="evenodd"><path d="M75.3 7H4.6A2.6 2.6 0 0 0 2 9.6V71c0 1.3 1.2 2.5 2.6 2.5h70.7c1.5 0 2.7-1.2 2.7-2.6V9.5C78 8.2 76.8 7 75.3 7zm-68 61.2V16.8h65.4v51.4H7.3z"/><path d="M66.8 23.8H13.2c-1 0-1.6.8-1.6 1.6v6c0 .7.7 1.4 1.6 1.4h53.6c.8 0 1.5-.7 1.5-1.5v-6c0-.7-.7-1.5-1.5-1.5zM36.2 37.2H13c-.8 0-1.5.7-1.5 1.6V60c0 1 .7 1.7 1.5 1.7h23.2c.8 0 1.5-.7 1.5-1.6V39c0-1-.7-1.6-1.5-1.6zm-1.6 21.3h-20v-18h20v18zM66.8 37.2H43.6c-.8 0-1.5.7-1.5 1.6V60c0 1 .8 1.7 1.6 1.7h23.2c.8 0 1.5-.7 1.5-1.6V39c0-1-.7-1.6-1.5-1.6zm-1.6 21.3h-20v-18h20v18z"/></g>
        </symbol>
        <symbol id="time" viewBox="0 0  ">
            <path fill="#010101" d="M921.8.3c-1.5 0-3-.3-4.4-.3C878 0 851 31.8 851 71c0 38.6 15 70 74 70.8v.2c280 3.8 525 243 525 536.6 0 296-243 540.2-539 540.2-282.5 0-517-213-537.6-493.2H498L305.7 406 113.4 725.6h118c20.7 353.7 316.6 635 677.2 635 374.2 0 678.7-306 678.7-680.4 0-369.7-297.4-673-665.5-680z"/><path fill="#010101" d="M984 330.8c0-33.4-26.8-62-60-62h-13c-33.4 0-59.6 28.6-59.6 62v356.8L676.6 862a67.2 67.2 0 0 0 0 93.3c24.4 26 67.2 26 93 0l193-193 4.2-4.8c10.6-11 17-26 17-42.3l.2-384.4z"/>
        </symbol>
        <symbol id="toggle" viewBox="0 0 80 81">
            <g transform="translate(1 20.2)" fill="none" fill-rule="evenodd"><rect fill="#131313" width="77" height="38" rx="8"/><path d="M29.4 13.6l-2-2a.8.8 0 0 0-1.3 0L17 21c-.4.4-1 .4-1.2 0L12 17.6a.8.8 0 0 0-1 0l-2.2 2a1 1 0 0 0 0 1.3l5.4 5.4c.3.3 1 .6 1.4.6h1c.5 0 1-.3 1.5-.6l11.4-11.6c.3-.3.3-1 0-1.2z" fill="#FFF"/><rect fill="#FFF" x="37" y="2.8" width="37.2" height="32.4" rx="8"/></g>
        </symbol>
        <symbol id="tools" viewBox="0 0  ">
            <path d="M46.4 33.8c-1.3 0-2.7.4-4 1L25 17.7a9 9 0 0 0 1-4C26 6.6 19.7 0 12.8 0l-1.3 1.2c5.6 5.6 5 4.7 5 8 0 3-4.3 7.2-7 7.2H8c-2 0-2-.4-6.6-5L0 12.5c0 7 6.6 13.6 13.6 13.6 1.3 0 2.6-.4 4-1l17.3 17.3c-.8 1.3-1.2 2.7-1.2 4 0 6.8 6.6 13.5 13.5 13.5l1.3-1.2c-5.6-5.6-5-4.7-5-8 0-3 4.3-7.2 7-7.2H52c2 0 2 .4 6.6 5l1.2-1a14 14 0 0 0-13.4-13.8"/><path d="M5.3 43.6L0 59.6l16.2-5 13-13L23 35 12.7 45.4 11 43.6l10-10.2-2.7-2.8zM33.4 21.2l4.6-4.7 1.8 1.8-4.6 4.7 6.2 6.3 7.5-7.5-11-11-7.5 7.6zM49 0l-7.3 7.2 11 11 7-7.3L49 0z"/>
        </symbol>
        <symbol id="tram-money" viewBox="0 0 80 81">
            <g fill="#010101" fill-rule="evenodd"><path d="M69.7 61l-5.6.7 2.6 7h-20l2.7-7c-2 0-3.8-.4-5.6-.6L35 78.6h8l2-5.7h23l2 5.7h8L69.6 61zm6.5-5.2V13.2s-5.6-9.4-19.7-9.4c-14 0-19.7 9.4-19.7 9.4v42.6s10.4 2 19.7 2c9.4 0 19.7-2 19.7-2zm-9-3a4 4 0 1 1 0-8 4 4 0 0 1 0 8zM52.4 9.3c0-.7.6-1.2 1.4-1.2H59c.8 0 1.4.5 1.4 1.2v1c0 .6-.6 1-1.4 1H54c-1 0-1.5-.4-1.5-1v-1zm-9.4 8s6.8-1 13.5-1a87 87 0 0 1 13.4 1v16s-3.3 6.8-13.4 6.8c-10 0-13.5-6.7-13.5-6.7v-16zm3 35.3a4 4 0 1 1 0-8 4 4 0 0 1 0 8z"/><path d="M40.3 52.4c-.6-3.3-6.8-5-13-5h-.2v-13c0-3.8-6.5-5.8-13-5.8-6.4 0-13 2-13 5.7v20.5c0 3.7 6.6 5.7 13 5.7h.3v2.8c0 3.7 6.6 5.7 13 5.7 6.5 0 13-2 13-5.7v-11zm-36-14.2c1 .5 2.2 1 3.6 1.3a27.6 27.6 0 0 0 8.3.5c1.4 0 2.7-.3 4-.5 1.4-.4 2.6-.8 3.7-1.3.6.4 1 1 1 1.3 0 .3-.4.8-1 1.2a13 13 0 0 1-2.8 1.3 24.4 24.4 0 0 1-15.8-.6l-1.2-.7c-.6-.4-1-1-1-1.2 0-.4.4-1 1-1.3zm0 5c1 .6 2.2 1 3.6 1.4a27.3 27.3 0 0 0 8.4.5 16.4 16.4 0 0 0 7.6-1.8c.6.5 1 1 1 1.4 0 .3-.4.8-1 1.2a13 13 0 0 1-2.8 1.3 24.4 24.4 0 0 1-15.8-.6 7 7 0 0 1-1.2-.6c-.6-.4-1-1-1-1.2 0-.4.4-1 1-1.3zm10 15H14c-6.5 0-10.7-2-10.7-3.4 0-.4.3-1 1-1.3 2.4 1.3 6 2 9.8 2h.3v2.8zm.6-7c-.5.6-.7 1.2-.7 1.8v.2H14a24.3 24.3 0 0 1-8.6-1.6L4.2 51c-.6-.5-1-1-1-1.3 0-.4.4-1 1-1.3 1 .5 2.3 1 3.7 1.3a27.5 27.5 0 0 0 7.8.6l-1 1zM27.3 67c-6.6 0-10.8-2-10.8-3.6 0-.3.3-.8.8-1.2 2.6 1.2 6.3 2 10 2 3.6 0 7.4-.8 10-2 .4.4.8 1 .8 1.2 0 1.5-4.2 3.6-10.8 3.6zm10-7.4a13 13 0 0 1-2.8 1.3c-1.8.7-4.3 1-7 1a24.4 24.4 0 0 1-8.7-1.4 7 7 0 0 1-1.6-1c-.4-.3-.6-.7-.6-1 0-.4.3-1 1-1.3a14.2 14.2 0 0 0 4.2 1.3 27.5 27.5 0 0 0 7.8.4c1.4 0 2.7-.3 4-.6 1.4-.2 2.6-.6 3.7-1 .6.3 1 .8 1 1 0 .5-.5 1-1 1.4z"/></g>
        </symbol>
        <symbol id="tram" viewBox="0 0 80 81">
            <path d="M49 63.6l1.4 4h-20l1.2-4h-5.4l-3.8 12h5.4l1.2-4h22.7l1.3 4h5.4l-4-12h-5.3zm15.6-48.8c0-7.4-6-13-14.2-13h-20C22 1.7 16 7.3 16 14.7l-3 33.4v.2c0 7.2 5.7 12.2 14.2 12.2h26.2c8.6 0 14.3-5 14.3-12.2l-3-33.6zM29 7.3c0-.6.4-1.2 1-1.5l.8-.2h19c.3 0 .7 0 1 .2.4.3.7 1 .7 1.5l.2 1.5c0 1-.8 1.7-1.8 1.7H30.6c-1 0-1.7-.8-1.7-1.7V7.3zm-5.2 45a4.3 4.3 0 1 1 0-8.6 4.3 4.3 0 0 1 0 8.7zm33 0a4.3 4.3 0 1 1 0-8.6 4.3 4.3 0 0 1 0 8.7zM51 39.6H29.6c-5 0-9-1.3-11.3-3l2-21.2c2-1.2 5.8-2 10-2h20.2c4.2 0 8 .8 10.2 2l2 21.3c-2.4 1.5-6.6 3-11.5 3z" fill="#010101" fill-rule="evenodd"/>
        </symbol>
        <symbol id="trash" viewBox="0 0 80 80">
            <g fill="#000" fill-rule="evenodd"><path d="M26 67.6c1.2 0 2-1 2-2V25.4c0-1-.8-2-2-2-1 0-1.8 1-1.8 2v40.2c0 1 1 2 2 2zM38 67.6c1.2 0 2-1 2-2V25.4c0-1-.8-2-2-2-1 0-1.8 1-1.8 2v40.2c0 1 1 2 2 2zM50 67.6c1.2 0 2-1 2-2V25.4c0-1-.8-2-2-2-1 0-1.8 1-1.8 2v40.2c0 1 1 2 2 2z"/><path d="M66.8 10.7h-14v-4C53 3.3 50.4.8 47.3.8h-18c-3.3 0-5.8 2.4-5.8 5.6v4h-14a4 4 0 0 0 0 7.7H12V75c0 1.7 1.3 3.2 3 3.2h46c2 0 3.4-1.5 3.4-3.2V18.4h2.4a4 4 0 0 0 0-7.7zm-38.3-4c0-.4.3-.7.6-.7h18.2c.3 0 .5.3.5.6v4H28.5v-4zM58 71.4H18.2v-53H58v53z"/></g>
        </symbol>
        <symbol id="trashbin" viewBox="0 0 80 80">
            <path d="M32.7 4l-2.5 5H19a5 5 0 0 0-5 5v5h52.8v-5a5 5 0 0 0-5-5H50.2l-2.4-5h-15zM15.5 24l4.3 44.8c.3 2.7 3 5 5.6 5h29.8c2.8 0 5.3-2.3 5.6-5l4.4-45H15.5z" fill="#000" fill-rule="evenodd"/>
        </symbol>
        <symbol id="twitter" viewBox="0 0 80 80">
            <defs><path id="a" d="M0 0h76v61H0"/></defs><g transform="translate(2 10)" fill="none" fill-rule="evenodd"><mask id="b" fill="#fff"><use xlink:href="#a"/></mask><path d="M24 61c-9 0-17-2.6-24-7a32.2 32.2 0 0 0 23-6.3C16.4 47.7 10.6 43 8.6 37a15.8 15.8 0 0 0 7-.3c-7-1.4-12.4-7.6-12.4-15v-.3c2.2 1.2 4.6 2 7 2A15.4 15.4 0 0 1 5.4 2.7a44.5 44.5 0 0 0 32.2 16A15.5 15.5 0 0 1 52.7 0c4.6.2 8.6 2 11.5 5 3.6-.7 7-2 10-3.7a15.5 15.5 0 0 1-7 8.6c3.3-.4 6.3-1.2 9-2.4-2 3-4.6 5.8-7.7 8A44 44 0 0 1 24 61" fill="#000" mask="url(#b)"/></g>
        </symbol>
        <symbol id="up" viewBox="0 0 80 80">
            <path d="M77.8 58.2L39.8 22 2 58.2h75.8z" fill="#000" fill-rule="evenodd"/>
        </symbol>
        <symbol id="video" viewBox="0 0 80 80">
            <g fill="none" fill-rule="evenodd"><path d="M40 6.4a33 33 0 1 0 0 66 33 33 0 0 0 0-66z" stroke="#000" stroke-width="7"/><path d="M55.8 37c3 1.7 3 4.6 0 6.4L35.3 55c-3.2 2-5.8.4-5.8-3.2V28.6c0-3.6 2.6-5 5.8-3.3L55.8 37z" fill="#000"/></g>
        </symbol>
        <symbol id="vorlage" viewBox="0 0 80 80">
            <path d="M63.8 25.3H49c-1 0-1.8-1-1.8-2V9c0-1-1-2-2-2h-30c-1 0-2 1-2 2v63.8c0 1 1 2 2 2h48.6c1 0 2-1 2-2V27.2c0-1-1-2-2-2zM49.5 10c0-1 .7-1.2 1.4-.5l12.2 12c.8 1 .5 1.5-.6 1.5h-11c-1.2 0-2-1-2-2V10z" fill="#000" fill-rule="evenodd"/>
        </symbol>
        <symbol id="warning" viewBox="0 0 80 81">
            <path d="M76.5 59.4L48 10c-4.4-7.7-11.7-7.7-16 0L3.3 59.4c-4.5 7.7-1 14 8 14h57c9 0 12.5-6.4 8-14zm-36.3 5.2a5 5 0 0 1-5-5 5 5 0 0 1 5-4.8 5 5 0 0 1 5 5 5 5 0 0 1-5 4.8zm3.5-13h-7L34.4 23H46l-2.3 28.6z" fill="#000" fill-rule="evenodd"/>
        </symbol>
        <symbol id="watch" viewBox="0 0 80 80">
            <path d="M54.8 60.4c-.6-.3-1.2-.3-1.7 0a24.7 24.7 0 0 1-28.7 0A1.5 1.5 0 0 0 22 62l1.8 10.6c0 .8.7 1.3 1.5 1.3H52c.8 0 1.4-.6 1.6-1.4l2-10.6c0-.7-.3-1.3-.8-1.6zM22.6 14.2a1.5 1.5 0 0 0 1.7 0A24.7 24.7 0 0 1 53 14c.6.3 1.3.3 1.8 0s.8-1 .7-1.6l-2-10.3c0-.7-.7-1.2-1.4-1.2H25.4c-.7 0-1.4.6-1.5 1.3l-2 10.3c0 .6.3 1.3.8 1.6zM48 36.4h-8.8V24a1.4 1.4 0 0 0-2.7 0V38c0 .3 0 .6.2.8.3.6 1 1 1.7 1H48a1.8 1.8 0 0 0 0-3.6zm19.7-3H64h-.2V35.2h-1.5a23.6 23.6 0 1 0 0 4.5h1.4V41l.3.2h3.7v-7.4-.3zM39 56a18.5 18.5 0 1 1 0-37 18.5 18.5 0 0 1 0 37z" fill="#010101" fill-rule="evenodd"/>
        </symbol>
        <symbol id="website" viewBox="0 0 80 80">
            <path d="M41.4 4a36.4 36.4 0 1 0 0 72.8 36.4 36.4 0 0 0 0-72.8zm13.3 34.4c0-3.4-.3-6.6-.7-9.5h12c1.5 3 2.3 6 2.6 9.4h-14zm-40.5 0a27 27 0 0 1 2.4-9.5h12.2c-.3 2.8-.6 6-.7 9.4H14.3zM33 29h17c.3 2.8.6 6 .6 9.4H32.2c0-3.5.3-6.6.7-9.5zM14 42.4h14c0 3.5.3 6.7.7 9.6H16.6a27 27 0 0 1-2.5-9.5zm18 0h18.4c0 3.5-.3 6.7-.7 9.6H33c-.5-2.8-.7-6-.8-9.5zm22.5 0h14A27 27 0 0 1 66 52H54c.4-2.8.6-6 .7-9.5zm9-17.7H53.3c-.8-4-1.8-7.4-3-10.2 5.5 2 10.2 5.5 13.4 10.2zM45.4 13.4c1.4 3 2.8 6.6 3.8 11.4H33.6c1-4.8 2.4-8.5 3.8-11.4a27.4 27.4 0 0 1 8 0zm-13 1.2c-1 2.8-2 6.2-3 10.2H19c3.3-4.7 8-8.3 13.4-10.2zM19 56h10.5c.8 4 1.8 7.3 3 10-5.5-1.8-10-5.3-13.4-10zm18.3 11.4A49.2 49.2 0 0 1 33.7 56h15.5c-1 4.8-2.4 8.5-3.7 11.3a27.4 27.4 0 0 1-8.2 0zm13-1.3c1.2-2.7 2.2-6 3-10h10.3c-3.2 4.7-7.8 8.2-13.2 10z" fill="#1A1918" fill-rule="evenodd"/>
        </symbol>
        <symbol id="wheelchair" viewBox="0 0 80 80">
            <path d="M34.5 68.8a18 18 0 0 1-11.2-32.2l-.7-7a24 24 0 0 0 12 45.3c7.5 0 14.3-3.5 18.8-8.8L50.2 60c-3.2 5.2-9 8.8-15.7 8.8zm34.7-9.4l-6.4 2-9.5-18.6H34.7l-1-8.8H46v-6.3H33l-1-8.4a9.3 9.3 0 0 0 7.8-9c0-5-4.2-9.2-9.3-9.2a9.3 9.3 0 0 0-9 11.6c.6 2.3 2 4.2 4 5.4l3.3 31h20.5l10 20L71 65.4l-1.8-6z" fill="#010101" fill-rule="evenodd"/>
        </symbol>
        <symbol id="x-bg" viewBox="0 0 81 81">
            <path d="M40.7 1.3a39 39 0 1 0 0 78 39 39 0 0 0 0-78zm10.7 41.5l10 10a3.7 3.7 0 0 1 0 5.3l-2.8 3a3.7 3.7 0 0 1-5 0L43.3 50.8a3.7 3.7 0 0 0-5.2 0L28.2 61a3.7 3.7 0 0 1-5.3 0l-3-3a3.7 3.7 0 0 1 0-5l10-10.2a3.7 3.7 0 0 0 0-5.2l-10-10a3.7 3.7 0 0 1 0-5.2l3-3a3.7 3.7 0 0 1 5 0l10.2 10.2a3.7 3.7 0 0 0 5.2 0l10-10a3.7 3.7 0 0 1 5.2 0l3 2.8a3.7 3.7 0 0 1 0 5L51.3 37.7a3.7 3.7 0 0 0 0 5.2z" fill="#000" fill-rule="evenodd"/>
        </symbol>
        <symbol id="x" viewBox="0 0 81 81">
            <path d="M59.5 44.3a6.3 6.3 0 0 1 0-9L76.8 18a6.3 6.3 0 0 0 0-9l-5-4.8a6.3 6.3 0 0 0-8.8 0L45.6 21.6a6.3 6.3 0 0 1-9 0L19.5 4.2a6.3 6.3 0 0 0-9 0l-5 5a6.3 6.3 0 0 0 0 8.8L23 35.4a6.3 6.3 0 0 1 0 9L5.4 61.6a6.3 6.3 0 0 0 0 8.8l5 5a6.3 6.3 0 0 0 9 0L36.6 58a6.3 6.3 0 0 1 9 0L63 75.6a6.3 6.3 0 0 0 9 0l4.8-5a6.3 6.3 0 0 0 0-8.8L59.5 44.3z" fill="#000" fill-rule="evenodd"/>
        </symbol>
        <symbol id="xing" viewBox="0 0  ">
            <path d="M11.8 59h15.5l12.2-20.2-9.2-16.2H14.8L24 38.8 11.8 59zm25.6-6.4l24.4-43h16.4l-24.4 43 15.7 27.7H53L37.5 52.6z"/>
        </symbol>
        <symbol id="youtube" viewBox="0 0  ">
            <path fill="#010202" d="M59 18.2s-.7-4-2.4-6c-2.2-2.2-4.8-2.3-6-2.4-8.2-.5-20.6-.5-20.6-.5s-12.4 0-20.6.6c-1.2 0-3.7 0-6 2.3-1.8 1.8-2.3 6-2.3 6S.6 23 .6 27.7v4.5c0 4.8.6 9.5.6 9.5s.7 4 2.4 6C5.6 50 8.6 50 10 50c4.6.5 20 .6 20 .6s12.4 0 20.7-.6c1.2 0 3.7 0 6-2.5 1.7-1.8 2.2-6 2.2-6s.5-4.7.5-9.4v-4.5c0-4.8-.6-9.6-.6-9.6zm-36.7 22V18.6L43 29.4 22.3 40.2z"/>
        </symbol>
</svg>
